<?xml version="1.0" encoding="utf-8"?>
<!-- Generator: Adobe Illustrator 24.0.3, SVG Export Plug-In . SVG Version: 6.00 Build 0)  -->
<svg version="1.1" id="Layer_1" xmlns="http://www.w3.org/2000/svg" xmlns:xlink="http://www.w3.org/1999/xlink" x="0px" y="0px"
	 viewBox="0 0 164 41" style="enable-background:new 0 0 164 41;" xml:space="preserve">
<style type="text/css">
	.st0{fill:#FFFFFF;}
</style>
<path class="st0" d="M26.5,8.4L26.5,8.4L26.5,8.4z"/>
<path class="st0" d="M35.9,27.6c-0.2,0-0.3-0.2-0.4-0.3C35.6,27.4,35.7,27.6,35.9,27.6z M35,21.8c0,0.8,0,1.6,0,2.4
	c0,0.3,0,0.6-0.1,0.9c0,0.1,0,0.1,0,0.2c0.1,0.5-0.1,0.9-0.2,1.4c-0.3,1.2-0.7,2.4-1.2,3.5c-0.4,0.7-0.7,1.4-1.2,2.1
	c-0.1,0.1-0.1,0.2-0.2,0.2c0,0,0,0,0,0c-0.3,0.6-0.8,1-1.2,1.5c-0.1,0.2-0.3,0.3-0.4,0.4c-0.8,0.7-1.6,1.4-2.6,2
	c-0.2,0.2-0.5,0.3-0.8,0.5c-0.7,0.4-1.5,0.8-2.3,1.1c-0.7,0.3-1.4,0.5-2.1,0.8c0,0.1,0,0.1-0.1,0.1c0,0,0-0.1,0.1-0.1
	c-0.1,0-0.1,0-0.2,0.1c0,0-0.1,0-0.1,0c-0.3,0.1-0.7,0.2-1,0.3c-0.4,0.1-0.5,0.1-0.5-0.3c0-0.2-0.1-0.4,0-0.5c0-0.6,0-1.3,0-1.9
	c0,0,0,0,0-0.1c-0.1,0.1-0.1,0.1-0.2,0.2c0.1-0.1,0.1-0.1,0.2-0.2c0-0.1,0.1-0.2,0.2-0.2c0,0,0-0.1,0.1,0c0.2-0.1,0.5-0.1,0.7-0.2
	c0,0,0.1,0,0.1,0c0.7-0.3,1.4-0.5,2-0.8c0.4-0.2,0.9-0.4,1.3-0.7c0,0,0.1,0,0.1,0c0.1-0.1,0.2-0.2,0.3-0.3c0,0,0,0,0,0c0,0,0,0,0,0
	c0,0,0.1-0.1,0.1-0.1c0.6-0.4,1.1-0.8,1.6-1.3c0.2-0.2,0.5-0.5,0.7-0.7c0,0,0.1,0,0.1,0c0,0,0,0,0,0c0,0,0-0.1,0-0.1c0,0,0,0,0,0
	c0,0,0,0,0,0c0,0,0.1-0.1,0.1-0.1c0,0,0.1-0.1,0.1-0.1c0,0,0.1-0.1,0.1-0.1c0.7-0.8,1.2-1.6,1.7-2.5c0,0,0,0,0.1-0.1
	c0.4-0.8,0.8-1.7,1-2.6c0,0,0-0.1,0-0.1c0-0.1,0-0.1,0-0.2c0-0.1-0.1-0.2-0.2-0.3c0.1,0.1,0.1,0.2,0.2,0.3c0.3-1.1,0.4-2.3,0.4-3.4
	c0,0-0.1,0-0.1,0c0,0,0.1,0,0.1,0c0-1.5-0.2-2.9-0.7-4.3c0,0,0,0,0,0c0,0,0,0,0,0c0,0,0-0.1,0-0.1c0,0,0-0.1-0.1-0.1
	c0-0.3-0.2-0.5-0.2-0.8c0,0,0-0.1,0-0.1c-0.3-0.5-0.4-1.1-0.6-1.6c-0.2-0.4-0.3-0.8-0.5-1.1c-0.2-0.7-0.6-1.3-0.9-2
	c-0.5-0.9-1-1.8-1.6-2.7c0-0.1-0.1-0.1-0.1-0.2c0-0.1-0.1-0.1-0.1-0.2c0-0.1-0.1-0.1-0.1-0.1c0-0.1,0-0.1-0.1-0.1
	c0-0.1-0.1-0.2-0.1-0.2c0-0.1-0.1-0.2-0.2-0.2c0-0.1-0.1-0.1-0.1-0.2c0-0.1,0-0.1,0-0.2c-0.1,0-0.1-0.1-0.2-0.1
	c-0.1,0-0.1-0.1-0.1-0.1c-0.1-0.2-0.3-0.3-0.3-0.5c-0.4-0.3-0.6-0.7-0.9-1.1c-0.1-0.1,0-0.2,0.1-0.2c0.5-0.6,1-1.2,1.6-1.8
	c0.1-0.1,0.1-0.1,0.2-0.1c0.4,0.4,0.9,0.8,1.2,1.3l0,0l0,0c0.1,0.1,0.2,0.1,0.3,0.3c-0.1-0.1-0.2-0.2-0.3-0.3c0,0.2,0.2,0.3,0.4,0.4
	c0,0,0,0,0,0c0.4,0.3,0.7,0.8,1,1.2c0.1,0.1,0.2,0.2,0.2,0.4C30.2,8.4,30.6,9,31,9.7c0,0,0,0,0,0c0.3,0.4,0.5,0.8,0.8,1.3
	c0.1,0.2,0.3,0.4,0.3,0.7c0,0,0,0.1,0,0.1c0.2,0.1,0.2,0.4,0.3,0.6c0.1,0.1,0.2,0.3,0.2,0.4c0.1,0,0.2,0.1,0.3,0.3
	c-0.1-0.1-0.2-0.2-0.3-0.3c0.3,0.7,0.6,1.4,0.9,2.2c0.3,0.8,0.6,1.7,0.8,2.6c0,0.1,0.1,0.2,0.1,0.4c0.2,0.3,0.3,0.5,0.4,0.8
	c-0.2-0.3-0.3-0.5-0.4-0.8c0,0.4,0.2,0.8,0.2,1.3c0,0,0,0.1,0,0.1c0.2,0.5,0.2,1,0.2,1.6c0,0.1,0,0.2,0,0.3C35,21.3,35,21.6,35,21.8
	c0.1,0.3,0.2,0.4,0.4,0.4C35.2,22.2,35.1,22.1,35,21.8z M34.9,26.7c0.1,0,0.2,0.1,0.3,0.1C35.1,26.8,35,26.7,34.9,26.7z M32.3,34.7
	c-0.1,0-0.1,0-0.1,0.1C32.2,34.7,32.2,34.7,32.3,34.7c0-0.1,0.1-0.1,0.2-0.2C32.4,34.6,32.3,34.6,32.3,34.7z M28.1,31.8
	c0.1,0,0.1,0,0.2,0C28.2,31.9,28.1,31.9,28.1,31.8c-0.1,0-0.1-0.1-0.1-0.1C28,31.8,28,31.8,28.1,31.8z M30.2,25.1c0.1,0,0.2,0,0.2,0
	C30.4,25.1,30.3,25.1,30.2,25.1c-0.1,0.2-0.1,0.3-0.1,0.5C30.1,25.4,30.1,25.3,30.2,25.1z M30.2,19.8c0.1,0.5,0.2,1.1,0.2,1.6
	c0,0,0,0.1,0,0.1c0,0,0-0.1,0-0.1C30.4,20.8,30.3,20.3,30.2,19.8z M27.2,9.8c0,0,0-0.1,0-0.1C27.2,9.7,27.2,9.8,27.2,9.8z
	 M19.6,29.9c0-0.7,0-1.4,0-2.1C19.6,28.5,19.6,29.2,19.6,29.9C19.6,29.9,19.7,29.9,19.6,29.9C19.7,29.9,19.6,29.9,19.6,29.9z
	 M21.2,27.1c0.1-0.5,0.2-1,0.4-1.4c0-0.1,0.1-0.2,0.1-0.3c0,0,0.1-0.1,0-0.1c0,0,0,0,0,0c0,0,0,0,0,0c0.1,0,0.1-0.1,0.1-0.2
	c0.4-0.5,0.8-0.9,1.2-1.3c0,0,0,0,0,0c0,0,0-0.1,0-0.1c0,0,0,0,0,0.1c0.1,0,0.2-0.1,0.2-0.1c0.1,0,0.1,0,0.2-0.1c0,0,0,0,0,0
	c0,0,0,0,0,0c0,0,0.1-0.1,0.1-0.1c0,0,0.1,0,0.1,0c0.1,0,0.1,0,0.1-0.1c0,0,0.1,0,0.1,0c0,0,0-0.1,0-0.1c0,0,0,0.1,0,0.1
	c0.1,0,0.1,0,0.1-0.1c0.8-0.3,1.6-0.4,2.4-0.3c0.4,0,0.4,0,0.3,0.4c-0.2,0.6-0.4,1.2-0.7,1.7c0,0.1,0,0.1-0.1,0.2
	c0,0.1,0.1,0.3,0.1,0.4c0-0.1-0.1-0.3-0.1-0.4c-0.3,0.3-0.5,0.6-0.8,0.9c-0.1,0-0.2,0.1-0.2,0.2h0l0,0c0,0,0,0-0.1,0.1
	c-0.1,0-0.1,0.1-0.2,0.1c0,0,0,0,0,0.1c0,0,0,0,0-0.1c-0.1,0-0.1,0.1-0.2,0.1c-0.1,0-0.2,0.1-0.2,0.1c-0.1,0-0.3,0.1-0.4,0.2
	c-0.1,0-0.1,0-0.2,0.1c-0.1,0.1-0.2,0.2-0.3,0.2c0.1-0.1,0.2-0.1,0.3-0.2c-0.2,0.1-0.5,0.1-0.7,0.2c0,0-0.1,0-0.1,0
	c-0.5,0.1-0.9,0.2-1.4,0.2C21.1,27.4,21.1,27.4,21.2,27.1z M11.4,6.8c0.1-0.1,0.1-0.1,0.1-0.3c-0.4,0.4-0.7,0.9-1,1.3
	C10,8.4,9.6,9,9.3,9.6c-0.1,0-0.1,0.1-0.1,0.2c0,0,0,0.1-0.1,0.1C9,9.9,9,9.9,9,10c-0.2,0.4-0.5,0.7-0.7,1.1
	c-0.1,0.1-0.2,0.3-0.2,0.4c-0.1,0.1-0.2,0.3-0.2,0.4c-0.3,0.4-0.5,0.9-0.7,1.3c-0.2,0.5-0.4,0.9-0.6,1.4c0,0.1-0.1,0.2-0.1,0.3
	c0,0-0.1,0.1-0.1,0.1v0c-0.1,0-0.1,0.1-0.1,0.2c0,0,0,0.1,0,0.1c-0.3,0.6-0.5,1.3-0.7,2c0,0,0,0,0,0.1c0,0,0,0,0-0.1
	c0,0,0,0.1,0,0.1c-0.1,0.1-0.1,0.2-0.1,0.4c0,0,0.1,0.1,0.1,0.1c0,0,0,0-0.1-0.1c-0.1,0.1-0.1,0.1-0.1,0.2c-0.1,0.1-0.1,0.3-0.1,0.4
	c-0.3,0.8-0.4,1.5-0.5,2.3c-0.2,1.4-0.2,2.8,0.1,4.2c0.1,0,0.1,0,0.1,0.1c0,0,0-0.1-0.1-0.1c0,0.1,0,0.1,0,0.2c0,0.1,0,0.1,0,0.2
	c0,0,0.1,0,0.1,0c0,0,0,0-0.1,0c0,0.1,0,0.1,0,0.1c0,0.1,0,0.1,0,0.2C5,25.7,5.1,25.9,5.1,26c0-0.1-0.1-0.3-0.2-0.3
	C5,26,5,26.4,5.2,26.8c0,0,0,0.1,0,0.1c0.1,0.7,0.4,1.3,0.8,1.9c1.2,2.3,2.8,4.1,5,5.5c1.3,0.8,2.7,1.4,4.2,1.7
	c0.2,0.1,0.3,0.2,0.3,0.4c0,0.8,0,1.7,0,2.5c0,0.2-0.1,0.3-0.3,0.2c-2.8-0.7-5.5-1.7-7.8-3.5c-1.3-1-2.3-2.1-3.2-3.4
	C4.1,32.1,4,32.1,3.9,32c0-0.1-0.1-0.2-0.2-0.3c-0.5-1-1-2-1.4-3.1c-0.4-1.4-0.7-2.9-0.8-4.3c0-0.1,0-0.3-0.1-0.4c0-0.6,0-1.2,0-1.7
	c0,0,0,0,0-0.1c0,0,0,0,0,0.1c0.1-0.1,0.1-0.3,0-0.4c0-0.1,0-0.3,0-0.4c0-0.1-0.1-0.1-0.1-0.1c0,0.1,0,0.1,0.1,0.1
	c0.1-0.1,0.1-0.3,0-0.4c0-0.1,0-0.1,0-0.2c0,0-0.1-0.1-0.1-0.1c0,0,0,0.1,0.1,0.1c0.1-0.1,0.1-0.2,0-0.2c0,0,0-0.1,0-0.1
	c0,0,0-0.1,0-0.1c0,0,0,0.1,0,0.1c0-0.1,0-0.1,0-0.2c0,0,0-0.1,0-0.1c0.1-0.1,0.1-0.3,0.1-0.4c0.2-0.8,0.3-1.5,0.5-2.3
	c0.1-0.6,0.3-1.1,0.5-1.7l0,0c0.1,0,0.1-0.1,0.1-0.2c0-0.1,0.1-0.1,0-0.2c0.1-0.1,0.1-0.1,0.1-0.2C3,15,3,14.9,3,14.9
	c0,0,0-0.1,0-0.1c0,0,0,0,0,0.1c0.1,0,0.1-0.1,0.1-0.1c0.1-0.1,0.1-0.2,0.1-0.3c0,0,0,0,0,0c0,0,0,0,0,0c0,0,0-0.1,0.1-0.1
	c0.1-0.1,0.1-0.3,0.2-0.4c0,0,0,0,0,0c0.1-0.1,0.1-0.1,0.1-0.2c0,0,0-0.1,0.1-0.1l0,0l0,0c0,0,0-0.1,0.1-0.1
	c0.1-0.1,0.1-0.1,0.1-0.2c0,0,0-0.1,0.1-0.1c0.1-0.2,0.2-0.3,0.2-0.5c-0.1,0.1-0.1,0.1-0.2,0.2c0.1-0.1,0.1-0.1,0.2-0.2
	c0.1-0.2,0.2-0.4,0.3-0.6c0,0,0,0,0-0.1c0.4-0.7,0.8-1.4,1.2-2.2v0c0.1,0,0.1-0.1,0.1-0.1c0.1,0,0.1-0.1,0.1-0.1c0,0,0,0,0,0
	c0,0,0,0,0,0c0.1-0.1,0.1-0.1,0.1-0.2l0,0v0c0,0,0,0,0-0.1c0,0,0,0,0,0.1c0.1,0,0.1-0.1,0.1-0.2c0.1,0,0.1-0.1,0.1-0.1
	c0,0,0-0.1,0.1-0.1c0.5-0.6,0.9-1.3,1.4-1.9c0.5-0.5,0.9-1,1.4-1.6C8.8,5.3,9,5.1,9.2,4.9c0,0-0.1,0-0.1,0c0,0,0.1,0,0.1,0
	c0.1,0,0.1-0.1,0.1-0.1c0-0.1,0-0.1,0.1-0.1c0,0-0.1,0.1-0.1,0.1c0.1,0,0.1-0.1,0.2-0.2c0.1-0.1,0.3,0,0.4,0.1
	c0.5,0.6,1,1.1,1.5,1.7c0.1,0.1,0.1,0.2,0.1,0.3C11.6,6.7,11.5,6.8,11.4,6.8z M6.5,16.1C6.5,16.2,6.6,16.2,6.5,16.1
	C6.6,16.2,6.5,16.2,6.5,16.1z M6.3,15.5c0.1,0.2,0.1,0.3,0.2,0.5C6.4,15.9,6.4,15.7,6.3,15.5z M3.7,32.2c0-0.1,0-0.1,0.1-0.2
	C3.7,32.1,3.7,32.1,3.7,32.2z M3.7,32.2C3.7,32.2,3.7,32.3,3.7,32.2C3.7,32.3,3.7,32.2,3.7,32.2z M3.6,33.1c0-0.1,0-0.3-0.1-0.4
	C3.6,32.8,3.6,33,3.6,33.1z M3.6,32.7c0-0.1,0-0.1-0.1-0.2C3.5,32.5,3.6,32.6,3.6,32.7z M1.5,23.8c0,0-0.1,0-0.1-0.1
	C1.4,23.8,1.4,23.8,1.5,23.8z M8.9,4.8c0,0-0.1-0.1-0.1-0.1C8.9,4.7,8.9,4.8,8.9,4.8z M15.4,27.1c0.1,0.2,0,0.3-0.3,0.4
	c-2.6,0-4.7-1.6-5.3-4.2C9.7,23,9.8,23,10,23c0.3,0,0.6,0,0.9,0c-0.2,0-0.3-0.2-0.4-0.2c0.2,0,0.3,0.2,0.4,0.2c0.1,0,0.2,0,0.3,0
	c0.1,0.1,0.1,0.1,0.2,0c1.4,0.2,2.5,0.9,3.3,2.1c0,0,0,0,0.1,0c0,0,0,0-0.1,0c0,0.1,0,0.1,0.1,0.2c0,0.1,0.1,0.2,0.1,0.3
	c0.1,0,0.1,0,0.1,0.1c0,0,0,0.1,0,0.1c0,0,0-0.1,0-0.1c0,0-0.1-0.1-0.1-0.1c0,0.1,0.1,0.2,0.1,0.3c0,0.1,0,0.2,0.1,0.3
	c0.2,0.1,0.2,0.3,0.2,0.5c0-0.2-0.1-0.4-0.2-0.5C15.2,26.4,15.3,26.8,15.4,27.1z M9.4,22.1C9.4,22.1,9.4,22,9.4,22.1
	C9.4,22,9.4,22,9.4,22.1z M36.4,20.9c-0.1-0.6-0.1-1.3-0.3-1.9c0-0.1,0-0.3-0.1-0.4c0-0.2,0-0.5-0.1-0.7c0-0.1,0-0.1,0-0.2
	c0-0.1,0-0.3-0.1-0.4c0-0.1,0-0.1,0-0.1c0-0.1,0-0.3-0.1-0.4c0,0,0-0.1,0-0.1c0-0.1,0-0.1,0-0.1c0-0.1,0-0.2-0.1-0.3
	c0-0.1,0-0.2-0.1-0.2c0,0,0-0.1,0-0.1c0.1-0.1,0-0.1-0.1-0.2c0,0,0-0.1,0-0.1c0-0.1,0-0.2-0.1-0.3c0-0.1,0-0.2-0.1-0.3
	c0.1-0.1,0-0.1-0.1-0.1c0,0,0-0.1-0.1-0.1c0.1-0.1,0-0.2-0.1-0.2c0,0,0,0,0-0.1c-0.1-0.5-0.3-0.9-0.5-1.4c-0.9-2.3-2.1-4.5-3.6-6.5
	c-1.2-1.6-2.5-3-3.9-4.3c-0.2-0.2-0.3-0.2-0.5,0c-0.8,0.9-1.5,1.7-2.3,2.6c-0.2,0.2-0.3,0.2-0.4,0c-0.9-1-1.9-2-3-3
	c-0.8-0.7-1.6-1.4-2.4-2C18.3,0,18.2,0,18.1,0c-0.3,0.3-0.7,0.4-0.9,0.8c0,0-0.1,0-0.1,0.1c0,0,0,0,0,0c-0.1,0-0.2,0.1-0.3,0.2
	c-0.1,0-0.1,0-0.1,0.1c-0.1,0-0.1,0-0.1,0.1c-0.1,0.1-0.1,0.1-0.2,0.1c-0.2,0.1-0.4,0.3-0.5,0.5c-0.1,0-0.2,0.1-0.2,0.1
	c-0.5,0.5-1,0.9-1.4,1.4c-0.4,0.4-0.8,0.7-1,1.2C13.1,4.7,13,4.8,13,4.8c-0.4,0.5-0.4,0.5-0.9,0C12,4.7,12,4.7,11.9,4.6
	c-0.6-0.7-1.3-1.4-1.9-2.2C9.9,2.3,9.8,2.2,9.6,2.3c-0.5,0.5-1,0.9-1.4,1.4C8.3,3.8,8.3,3.9,8.4,4C8.3,3.9,8.3,3.8,8.2,3.8
	C7.9,4,7.6,4.3,7.4,4.6C7,5,6.6,5.4,6.3,6C6,6.2,5.7,6.6,5.5,6.9c0,0,0,0.1-0.1,0.1C5.3,7,5.3,7.2,5.3,7.3c-0.1,0-0.1,0.1-0.1,0.1
	c0,0,0,0,0,0.1c-0.1,0-0.1,0.1-0.1,0.1C5,7.7,5,7.7,4.9,7.8C4.7,8,4.5,8.4,4.3,8.7c-0.5,0.9-1.1,1.7-1.4,2.6c-0.1,0-0.1,0.1-0.1,0.1
	c0,0,0,0,0,0c0,0,0,0,0,0c-0.1,0.2-0.2,0.4-0.3,0.6c0,0-0.1,0.1-0.1,0.1c-0.1,0.2-0.2,0.4-0.2,0.5c-0.2,0.5-0.4,0.9-0.5,1.4
	c-0.2,0.2-0.2,0.4-0.2,0.6v0c-0.2,0.5-0.4,1.1-0.5,1.6c-0.2,0.8-0.5,1.7-0.5,2.5c-0.2,0.6-0.3,1.2-0.3,1.8c-0.1,0.2-0.1,0.4,0,0.6
	C0,21.6,0,21.9,0,22.3c-0.1,2.4,0.2,4.7,1,6.9c0.4,1.2,0.9,2.3,1.6,3.4c0,0.1,0.1,0.3,0.2,0.3c0,0.1,0.1,0.2,0.2,0.3
	c0,0.1,0,0.1,0.1,0.1c0,0,0,0,0,0c0.1,0.1,0.1,0.3,0.2,0.3c1.2,1.7,2.7,3,4.4,4.1c1.6,1,3.3,1.8,5.1,2.3c1.2,0.4,2.5,0.7,3.7,0.9
	c0.4,0.1,0.4,0.1,0.4-0.4c0-3.3,0-6.6,0-10c0-1.4,0.1-2.8-0.1-4.1c-0.1-0.5-0.2-0.9-0.5-1.4c0,0.1,0,0.1,0,0.2c0-0.1,0-0.1,0-0.2
	c0,0,0-0.1,0-0.1c0-0.1-0.1-0.2-0.2-0.3c0,0,0-0.1,0-0.1c0-0.1,0-0.1-0.1-0.2v0c-0.1-0.2-0.1-0.4-0.3-0.4c0-0.1,0-0.1-0.1-0.1
	c-0.1-0.1-0.1-0.2-0.2-0.3c0-0.1-0.1-0.2-0.2-0.2c0,0,0,0,0-0.1c0-0.1-0.1-0.2-0.2-0.2c-0.1-0.1-0.2-0.2-0.3-0.3
	c-0.1-0.1-0.2-0.2-0.3-0.3c0-0.1-0.1-0.1-0.1-0.1c0,0,0,0-0.1,0c0,0,0,0-0.1-0.1c0,0,0,0,0,0c-0.1-0.1-0.1-0.2-0.2-0.1
	c0,0-0.1,0-0.1,0c-0.4-0.4-1-0.5-1.5-0.6c0,0-0.1,0-0.1,0c-0.2-0.1-0.4-0.2-0.6-0.1c0,0-0.1,0-0.1,0c-0.2-0.1-0.3-0.1-0.5-0.1
	c-0.1,0-0.1,0-0.2,0c-0.1,0-0.1,0-0.1-0.1c-0.8,0-1.6,0.1-2.4,0.2c-0.1,0-0.1,0.1-0.1,0.2c0,0.1,0,0.2,0,0.3c0,1,0.2,1.9,0.6,2.8
	c0.6,1.3,1.4,2.4,2.6,3.1c1.2,0.7,2.4,0.9,3.7,0.9c0.2,0,0.3,0.1,0.3,0.3c0,1.6,0,3.2,0,4.8c0,0.3-0.1,0.3-0.3,0.2
	c-1.3-0.4-2.6-0.9-3.8-1.8c-0.5-0.2-0.9-0.6-1.2-0.9c-0.8-0.7-1.5-1.5-2-2.3c0,0,0-0.1-0.1-0.1c-0.2-0.2-0.3-0.5-0.4-0.7
	c0,0,0-0.1,0-0.1c-0.2-0.1-0.2-0.3-0.3-0.4c0-0.1-0.1-0.3-0.1-0.4c0,0,0-0.1,0-0.1c-0.1,0-0.1-0.1-0.2-0.2c0,0,0-0.1-0.1-0.1
	c0-0.2-0.2-0.4-0.2-0.6c0,0,0-0.1,0-0.1C6.6,26,6.5,25.5,6.4,25c0-0.1,0-0.1,0-0.2c-0.2-1-0.3-1.9-0.2-2.9c0-0.4,0.1-0.7,0.1-1.1
	c0,0,0,0,0,0c0,0,0,0,0,0c0.1-0.1,0.1-0.1,0-0.2c0-0.1,0-0.1,0-0.2c0,0,0-0.1,0-0.1c0,0,0,0,0,0.1h0h0c0,0,0-0.1,0-0.1
	c0,0,0,0,0-0.1c0-0.1,0-0.1,0-0.2c0-0.1-0.1-0.1,0-0.2c0,0.1,0,0.1,0,0.2c0.1-0.1,0.1-0.2,0.1-0.4c0-0.1,0-0.1,0-0.2c0,0,0,0-0.1,0
	c0,0,0,0,0.1,0c0.1-0.1,0.1-0.2,0.1-0.3c0,0,0-0.1,0-0.1c-0.1-0.1,0-0.1,0-0.1c0,0,0-0.1,0-0.1c0,0-0.1-0.1-0.1-0.1
	c0,0,0,0.1,0.1,0.1c0.1-0.1,0.1-0.2,0.1-0.3c0,0,0,0,0.1,0c0-0.1,0-0.1,0-0.2c0,0,0,0,0-0.1C7,17.7,7.2,17,7.5,16.3
	c0.1-0.2,0.1-0.3,0.2-0.5c0.1-0.1,0.1-0.2,0.1-0.3c0,0,0-0.1,0.1-0.1c0.1-0.1,0.1-0.3,0.2-0.3c0,0,0-0.1,0-0.1
	c0.1-0.4,0.4-0.8,0.5-1.2c0.1-0.2,0.1-0.3,0.2-0.5c-0.1,0-0.1,0-0.1,0c0,0,0.1,0,0.1,0c0,0,0-0.1,0.1-0.1c0,0,0-0.1,0.1-0.1
	c0.5-0.9,1.1-1.8,1.6-2.7c0.7-1,1.5-2.1,2.3-3c0.5-0.6,1-1.2,1.6-1.8c0.5-0.4,0.9-1,1.4-1.4c0.3-0.3,0.6-0.5,0.9-0.9
	c0.3-0.1,0.5-0.4,0.8-0.6c0.2-0.1,0.3-0.3,0.5-0.4c0.2-0.2,0.4-0.2,0.6,0c0.7,0.6,1.4,1.2,2.1,1.9c0.1,0.1,0.2,0.1,0.2,0.2
	c0.5,0.4,0.9,0.8,1.3,1.3c0.1,0,0.2,0.1,0.3,0.2c0,0.1,0.1,0.1,0.1,0.2c0,0.1,0.1,0.1,0.1,0.1c0,0,0,0.1,0.1,0.1
	c0.1,0.2,0.2,0.4,0.4,0.5c0,0,0,0.1,0.1,0.1c0,0.1,0.1,0.1,0.2,0.2c0.1,0.2,0.2,0.3,0.3,0.4c0,0,0,0,0,0c0.1,0,0.1,0,0.2,0.1
	c-0.1,0-0.1-0.1-0.2-0.1c0.8,1,1.6,2.1,2.3,3.1c0.3,0.5,0.5,1,0.9,1.4c0.2,0.4,0.4,0.8,0.6,1.1c0,0,0,0,0,0.1c0,0,0,0,0.1,0.1
	c0,0,0,0,0.1,0.1c0.1,0,0.1,0.1,0.2,0.1c-0.1,0-0.1-0.1-0.2-0.1c0.1,0.3,0.2,0.6,0.3,0.9c0.2,0.3,0.4,0.5,0.4,0.9c0,0,0,0.1,0,0.1
	c0.2,0.3,0.3,0.6,0.5,1c0.2,0.4,0.3,0.8,0.5,1.2c0,0,0.1,0.1,0.1,0.1c0,0-0.1-0.1-0.1-0.1c0,0.1,0.1,0.3,0.1,0.4c0,0,0,0,0,0.1
	c0,0.1,0.1,0.2,0.1,0.3l0,0c0,0,0,0.1,0,0.1c-0.1,0.1,0,0.1,0.1,0.1c0,0,0,0,0.1,0.1c0,0.1,0,0.2,0.1,0.3c-0.1,0.1,0,0.2,0,0.3
	c0.1,0.4,0.3,0.9,0.4,1.3c0.2,1.2,0.3,2.4,0.2,3.5c0,0.1-0.1,0.3,0,0.4c0,0.1,0,0.1,0,0.2c-0.1,0.1-0.1,0.2-0.1,0.3
	c0,0.1,0,0.1,0,0.2c-0.1,0.1-0.1,0.1-0.1,0.2c0,0,0,0.1,0,0.1C30,25.3,30,25.6,30,25.9c0,0.1,0,0.2-0.1,0.2
	c-0.2,0.1-0.2,0.2-0.1,0.4c0,0,0,0,0,0.1c-0.1,0.1-0.2,0.1-0.1,0.3c0,0,0.1,0,0.1,0c0,0-0.1,0-0.1,0c-0.2,0.5-0.4,0.9-0.6,1.4
	c-0.4,0.8-0.9,1.4-1.4,2.2c-0.2,0.1-0.3,0.3-0.4,0.5h0c0,0,0,0-0.1,0.1C27.1,31,27,31,27,31.1c-0.1,0.1-0.2,0.2-0.3,0.3
	c-0.1,0-0.1,0-0.1,0.1h0c-0.1,0-0.2,0.1-0.2,0.2c-0.2,0.2-0.5,0.4-0.7,0.6c-0.1,0-0.2,0.1-0.2,0.2c-0.1,0-0.2,0.1-0.2,0.1
	c-0.1,0-0.1,0-0.1,0.1c0,0-0.1,0-0.1,0.1c-0.2,0-0.3,0.1-0.4,0.3c-0.1,0-0.2,0.1-0.2,0.1c-0.9,0.5-1.9,1-3,1.2
	c-0.2,0.1-0.3,0-0.3-0.2c0-0.4,0-0.8,0-1.1c0-0.7,0.1-1.3,0-2c0.1-0.6,0-1.2,0-1.8c0.1-0.1,0.2-0.1,0.4-0.1c0.2,0,0.5,0,0.7-0.1
	c0.1,0,0.3,0,0.4,0c0.1,0,0.2,0,0.4-0.1c0.1,0,0.1,0,0.2,0c0.1,0,0.2,0,0.3-0.1c0.1,0,0.2,0,0.3-0.1c0.1,0,0.1,0,0.2-0.1
	c0.2,0,0.4-0.1,0.5-0.2c0.5-0.2,1-0.4,1.4-0.8h0l0,0c0.1,0,0.1,0,0.1-0.1c0,0,0.1-0.1,0.1-0.1c0.3-0.2,0.5-0.4,0.7-0.7
	c0.1,0,0.1-0.1,0.1-0.1c0.1,0,0.1-0.1,0.1-0.2c0,0,0.1-0.1,0.1-0.1c0.2-0.2,0.3-0.5,0.5-0.8c0.7-1.2,1-2.4,1-3.8
	c0-0.2-0.1-0.2-0.2-0.3c-0.3,0-0.6-0.1-0.9-0.1c-1-0.1-2.1-0.1-3.1,0.2c-0.7,0.2-1.3,0.4-1.8,0.8c0,0.1,0,0.1,0,0.1c0,0,0-0.1,0-0.1
	c-0.2,0-0.4,0.2-0.5,0.4c-0.4,0.3-0.8,0.7-1,1.1c-0.4,0.5-0.7,1.1-0.9,1.7l0,0l0,0c-0.1,0.1-0.1,0.2-0.1,0.3
	c-0.1,0.1-0.2,0.3-0.1,0.5c-0.1,0.2-0.1,0.4-0.1,0.5c-0.1,0.1-0.1,0.1-0.1,0.2c0,0.4-0.1,0.8-0.1,1.1c0,0.9,0,1.9,0,2.8
	c0.1,1.9,0,3.8,0,5.8c0,1.3,0,2.5,0,3.8c0,0.4,0,0.4,0.4,0.4c1.9-0.4,3.9-0.8,5.7-1.6c0.4-0.2,0.9-0.3,1.3-0.6c0,0,0.1,0,0.1-0.1
	l0,0l0,0l0,0c0.4-0.1,0.7-0.3,1-0.6c0.1,0,0.1-0.1,0.2-0.1c0.1,0,0.1,0,0.1-0.1c0,0,0,0,0.1-0.1c0.1,0,0.2-0.1,0.3-0.2
	c0.2,0,0.3-0.1,0.4-0.2c0.7-0.5,1.4-1.1,2.1-1.7c0.4-0.3,0.7-0.6,1-1.1c0.1,0,0.2-0.1,0.2-0.3c0.1-0.1,0.1-0.1,0.1-0.2
	c0-0.1,0-0.1,0.1-0.1c0,0,0,0.1-0.1,0.1c0.1,0,0.1-0.1,0.2-0.1c0.4-0.6,0.9-1.2,1.3-1.8c0.1-0.2,0.3-0.3,0.3-0.5c0,0,0-0.1,0.1-0.1
	c0.2-0.2,0.4-0.5,0.4-0.8c0,0,0,0,0,0c0.1,0,0.1-0.1,0.1-0.1c0.3-0.7,0.6-1.5,0.8-2.3c0.1-0.4,0.3-0.9,0.3-1.3c0-0.1,0-0.2,0-0.2
	c0.1-0.2,0.2-0.5,0.1-0.8c0,0,0-0.1,0-0.1c0.1-0.1,0.1-0.2,0.1-0.3c0-0.1,0-0.2,0-0.2c0.1-0.1,0.1-0.1,0-0.2c0-0.3,0.1-0.5,0.1-0.8
	c0.1-0.1,0.1-0.2,0.1-0.2C36.5,23.1,36.5,22,36.4,20.9z"/>
<path class="st0" d="M19.5,20.1c-0.1,0.1-0.1,0.1,0,0.2c0,0,0,0.1,0,0.1c0,0,0,0,0,0.1c0,0,0,0,0-0.1c-0.1,0-0.1,0.1,0,0.1
	c-0.2,0.8-0.5,1.5-0.9,2.2c-0.2,0.3-0.2,0.3-0.5,0c0-0.1-0.1-0.1-0.1-0.2c0,0-0.1,0-0.1-0.1c0,0,0,0.1,0.1,0.1c0-0.1,0-0.1-0.1-0.1
	c0-0.1-0.1-0.1-0.1-0.2c0,0,0,0,0-0.1c0-0.1,0-0.1-0.1-0.2c0,0,0-0.1,0-0.1c0-0.1,0-0.1-0.1-0.2c0,0,0,0,0,0c0-0.1,0-0.3-0.1-0.4
	c0-0.1,0-0.1-0.1-0.2c0-0.2,0-0.3-0.1-0.4c0,0,0-0.1,0-0.1C17,20.6,17,20.5,17,20.4c0,0.1,0.1,0.1,0.2,0.2c0-0.2,0-0.3-0.1-0.5
	c0-0.1,0-0.2,0-0.3c0-0.1,0-0.1,0-0.1c0,0.1,0,0.1,0,0.1c0-0.1,0-0.1,0-0.2c0-0.2,0-0.4,0-0.7h0c0.1-0.1,0.1-0.2,0-0.3
	c0,0,0-0.1,0-0.1c0-0.1-0.1-0.1-0.1-0.2c0,0.1,0,0.1,0.1,0.2c0.1-0.5,0.3-1,0.4-1.6c0-0.1,0-0.1,0-0.2c0,0,0-0.1,0-0.1c0,0,0,0,0,0
	c0.1-0.1,0.2-0.3,0.2-0.4c0,0,0,0,0,0c0.1,0,0.1-0.1,0.1-0.1C18,16.1,18,16,18,15.9c0.1-0.1,0.1-0.1,0.2-0.2c0,0,0-0.1,0-0.1
	c0,0,0,0.1,0,0.1c0,0,0.1,0,0.1,0c0.1,0.1,0.1,0.1,0.2,0.2c0,0.1,0,0.1,0.1,0.2c0.1,0.1,0.1,0.2,0.2,0.3c0,0.1,0.1,0.2,0.2,0.3
	c0,0.1,0,0.1,0.1,0.1c0.1,0,0.1,0.1,0.1,0.2c0-0.1-0.1-0.1-0.2-0.2c0,0.1,0.1,0.2,0.1,0.3c0,0.1,0,0.1,0.1,0.1c0,0,0.1,0,0.1,0
	c0,0-0.1,0-0.1,0c0,0.1,0,0.1,0.1,0.1c0,0.1,0.1,0.2,0.1,0.2c0.1,0.1,0.1,0.1,0.1,0.2c0-0.1-0.1-0.1-0.1-0.2c0,0.1,0,0.2,0.1,0.3
	c0,0,0,0.1,0,0.1c0,0.2,0.1,0.4,0.2,0.6c0,0,0.1,0,0.1-0.1c0,0-0.1,0-0.1,0.1c0,0.1,0,0.1,0,0.2c0,0,0,0.1,0,0.1c0,0.1,0,0.1,0,0.2
	c0,0.1-0.1,0.3,0,0.4c0,0,0.1,0,0.1,0c0,0-0.1,0-0.1,0C19.5,19.6,19.5,19.9,19.5,20.1C19.5,20.1,19.5,20.1,19.5,20.1
	C19.5,20.1,19.5,20.1,19.5,20.1z M19.5,20.5C19.5,20.5,19.5,20.5,19.5,20.5C19.5,20.5,19.5,20.5,19.5,20.5z M17.9,15.9
	c0-0.1-0.1-0.1-0.1-0.2C17.8,15.8,17.9,15.8,17.9,15.9z M19.7,24c0,0,0.1-0.1,0.1-0.1c0.1,0,0.1-0.1,0.1-0.1c0,0,0,0,0-0.1
	c0.2-0.1,0.2-0.2,0.2-0.3c0,0,0,0,0-0.1c0.1,0,0.1-0.1,0.1-0.1c0,0,0,0,0-0.1c0.1,0,0.1-0.1,0.1-0.2c0,0,0-0.1,0-0.1
	c0.1,0,0.1-0.1,0.1-0.2c0,0,0,0,0-0.1c0.2-0.2,0.3-0.5,0.3-0.8c0,0,0-0.1,0-0.1c0.1-0.1,0.2-0.2,0.1-0.4c0,0,0-0.1,0-0.1
	c0.1-0.1,0.2-0.2,0.1-0.4c0,0,0-0.1,0-0.1c0.1,0,0.1-0.1,0.1-0.1c0.1-0.6,0.1-1.2,0.1-1.8c0-0.3,0-0.7-0.2-1c0,0,0-0.1,0-0.1
	c0-0.2,0.1-0.4-0.1-0.6c0-0.1,0-0.1,0-0.2c0-0.3-0.1-0.6-0.3-0.8c0-0.1-0.1-0.2-0.1-0.3c0-0.1,0-0.2-0.1-0.3c0,0,0-0.1-0.1-0.1
	c0-0.1,0-0.1-0.1-0.1c0-0.1-0.1-0.1-0.1-0.2c0-0.2-0.1-0.3-0.3-0.4c0-0.1,0-0.2-0.2-0.3c0,0,0,0,0-0.1c0-0.1-0.1-0.2-0.2-0.2
	c0,0-0.1-0.1-0.1-0.1c0-0.1,0-0.1-0.1-0.1c-0.2-0.2-0.3-0.4-0.5-0.6c0,0,0,0-0.1-0.1c-0.1-0.1-0.1-0.1-0.2-0.2
	c-0.2-0.2-0.3,0-0.4,0.1c-0.3,0.3-0.6,0.6-0.9,0.9c-0.1,0-0.2,0.1-0.2,0.2c0,0,0,0,0,0.1c-0.2,0-0.2,0.2-0.2,0.3c0,0,0,0,0,0
	c-0.1,0-0.2,0.1-0.2,0.2c0,0,0,0,0,0.1h0c-0.3,0.2-0.4,0.6-0.5,0.9c-0.2,0.4-0.4,0.9-0.4,1.4c0,0.1,0,0.1,0,0.2
	c-0.1,0.1-0.1,0.1-0.1,0.3c0,0,0,0.1,0,0.1c-0.1,0.1-0.1,0.2-0.1,0.3c0,0.1,0,0.1,0,0.2c-0.1,0-0.1,0.1-0.1,0.2c0,0.5,0,0.9,0,1.4
	c0,0.1,0,0.1,0.1,0.2c0,0.1,0,0.2,0,0.2c-0.1,0.1-0.1,0.2,0.1,0.3c0,0,0,0.1,0,0.1c-0.1,0.1,0,0.2,0.1,0.2c0,0.1,0,0.2,0.1,0.3
	c0,0.3,0.1,0.6,0.2,0.8c0,0.1,0,0.1,0,0.2c0,0.1,0,0.3,0.1,0.3c0,0,0,0.1,0,0.1c0,0.2,0.1,0.3,0.2,0.4c0,0,0,0.1,0.1,0.1
	c0,0.1,0,0.1,0.1,0.1c0,0,0,0,0,0.1c0,0.1,0,0.2,0.2,0.3c0,0,0.1,0.1,0.1,0.1c0,0,0,0.1,0,0.1c0,0,0,0,0,0.1c0,0.1,0,0.1,0.1,0.1
	c0.1,0.1,0.1,0.1,0.1,0.2c0,0.1,0.1,0.2,0.2,0.2c0.1,0.1,0.1,0.1,0.2,0.2c0,0.1,0.1,0.2,0.2,0.2c0,0,0.1,0.1,0.1,0.1
	c0,0.1,0.1,0.2,0.2,0.2c0,0,0.1,0.1,0.1,0.1c0,0,0,0,0.1,0.1c0,0,0,0,0.1,0.1c0,0,0,0,0.1,0.1c0,0.1,0.1,0.2,0.2,0.1
	c0.1,0,0.2,0,0.2-0.1c0.1,0,0.1,0,0.1-0.1c0.1-0.1,0.2-0.1,0.2-0.2c0.1,0,0.2-0.1,0.2-0.2c0,0,0.1-0.1,0.1-0.1
	c0.1,0,0.2-0.1,0.2-0.2c0.1-0.1,0.2-0.2,0.3-0.3C19.6,24.1,19.7,24.1,19.7,24z"/>
<path class="st0" d="M17.7,22.2C17.7,22.2,17.7,22.2,17.7,22.2C17.8,22.2,17.7,22.2,17.7,22.2z"/>
<path class="st0" d="M3.4,13.9L3.4,13.9C3.4,13.9,3.4,13.9,3.4,13.9L3.4,13.9z"/>
<path class="st0" d="M6.3,15.1c0,0,0.1-0.1,0.1-0.1C6.3,15,6.3,15,6.3,15.1z"/>
<path class="st0" d="M49.5,30c1.2,0,2.2-0.5,3-1.6c0.8-1.1,1.2-2.2,1.2-3.5v-0.7h-0.8c-0.5,0-0.9,0-1.2,0c-0.7,0-2,0.1-2.8,0.4
	c-1.3,0.5-2.4,1.1-2.4,2.7C46.5,28.8,47.6,30,49.5,30z M52.8,22.9h0.8v-0.4c0-2.4-1.1-3.5-3.3-3.5c-1.2,0-2.2,0.3-3.3,0.9
	c-0.4,0.2-0.7,0.1-0.9-0.2l-0.2-0.3c-0.2-0.4-0.2-0.7,0.2-0.9c1.3-0.8,2.7-1.2,4.3-1.2c3.2,0,5,1.8,5,5.2v8.1c0,0.5-0.2,0.7-0.7,0.7
	h-0.4c-0.5,0-0.7-0.2-0.7-0.7v-1.1l0.1-1h-0.1c0,0-1.2,3.1-4.6,3.1c-1.2,0-2.3-0.4-3.2-1.1c-0.9-0.7-1.3-1.7-1.3-2.9
	C44.6,24.5,47.3,22.9,52.8,22.9z"/>
<path class="st0" d="M69,24.2c0-3.8-1.7-5.3-4.2-5.3c-2.7,0-4.3,1.9-4.3,5.1c0,3.4,1.7,5.5,4.4,5.5C67.3,29.5,69,27.9,69,24.2z
	 M60.3,34.9c0.2-0.4,0.5-0.4,0.9-0.3c1,0.5,2.1,0.7,3.2,0.7c2.7,0,4.7-1.4,4.7-4.3v-1.4l0.1-1H69c-0.9,1.7-2.3,2.6-4.3,2.6
	c-1.8,0-3.3-0.7-4.4-2c-1.1-1.3-1.6-3-1.6-5.1c0-2,0.5-3.7,1.6-5c1.1-1.3,2.5-1.9,4.4-1.9c2.8,0,3.9,1.6,4.3,2.3l0.1,0.3h0.1
	c0-0.1-0.1-0.3-0.1-0.5v-1.1c0-0.4,0.2-0.6,0.7-0.6h0.4c0.5,0,0.7,0.2,0.7,0.7v12.7c0,2-0.6,3.5-1.9,4.5c-1.2,1-2.8,1.5-4.6,1.5
	c-1.4,0-2.7-0.3-3.9-0.8c-0.4-0.2-0.5-0.5-0.3-0.9L60.3,34.9z"/>
<path class="st0" d="M74.9,18.3c0-0.5,0.2-0.7,0.7-0.7h0.5c0.4,0,0.7,0.2,0.7,0.7v1.8l-0.1,1.1h0.1c0.7-2.1,2.3-3.7,4.4-3.7
	c0.5,0,0.7,0.2,0.7,0.7v0.5c0,0.5-0.2,0.7-0.8,0.7c-1.3,0-2.4,0.6-3.1,1.9c-0.7,1.3-1.1,2.7-1.1,4.3v5.1c0,0.5-0.2,0.7-0.7,0.7h-0.5
	c-0.5,0-0.7-0.2-0.7-0.7L74.9,18.3L74.9,18.3z"/>
<path class="st0" d="M86,28.3c1,1.1,2.3,1.6,3.8,1.6c1.5,0,2.7-0.5,3.7-1.6c1-1.1,1.5-2.4,1.5-4c0-1.6-0.5-2.8-1.5-3.9
	c-1-1.1-2.3-1.6-3.7-1.6c-1.5,0-2.7,0.5-3.8,1.6c-1,1-1.5,2.3-1.5,3.9C84.5,25.9,85,27.3,86,28.3z M84.7,19.3c1.4-1.4,3.1-2,5.1-2
	c2,0,3.7,0.7,5.1,2c1.4,1.4,2.1,3,2.1,5.1c0,2-0.7,3.8-2.1,5.2c-1.4,1.4-3.1,2.1-5,2.1c-2,0-3.7-0.7-5.1-2.1
	c-1.4-1.4-2.1-3.1-2.1-5.2C82.6,22.3,83.3,20.7,84.7,19.3z"/>
<path class="st0" d="M103.2,23.5h6.5l-2.5-6.9l-0.7-2.5h-0.1c-0.3,1.1-0.5,1.9-0.7,2.5L103.2,23.5z M105.3,12.7
	c0.1-0.4,0.4-0.5,0.7-0.5h0.9c0.4,0,0.6,0.2,0.7,0.5l6.5,17.8c0.1,0.5,0,0.8-0.5,0.8h-0.6c-0.4,0-0.7-0.2-0.8-0.5l-2-5.5h-7.6
	l-2,5.5c-0.1,0.4-0.4,0.5-0.8,0.5h-0.6c-0.5,0-0.7-0.3-0.6-0.8L105.3,12.7z"/>
<path class="st0" d="M117,19.2h-1.1c-0.4,0-0.7-0.2-0.7-0.7v-0.2c0-0.5,0.2-0.7,0.7-0.7h1.1v-0.6c0-2,0.7-3.5,1.8-4.2
	c1.1-0.7,1.9-0.9,2.8-0.9h0.3c0.4,0,0.7,0.2,0.7,0.7V13c0,0.4-0.2,0.6-0.7,0.7c-0.7,0-1.2,0.1-1.9,0.6c-0.7,0.4-1,1.4-1,2.9v0.6h2.8
	c0.4,0,0.7,0.2,0.7,0.7v0.2c0,0.4-0.2,0.7-0.7,0.7h-2.8v11.3c0,0.5-0.2,0.7-0.7,0.7h-0.5c-0.4,0-0.7-0.2-0.7-0.7V19.2z"/>
<path class="st0" d="M124.7,18.3c0-0.5,0.2-0.7,0.7-0.7h0.5c0.4,0,0.7,0.2,0.7,0.7v1.8l-0.1,1.1h0.1c0.7-2.1,2.3-3.7,4.4-3.7
	c0.5,0,0.7,0.2,0.7,0.7v0.5c0,0.5-0.2,0.7-0.8,0.7c-1.3,0-2.4,0.6-3.1,1.9c-0.7,1.3-1.1,2.7-1.1,4.3v5.1c0,0.5-0.2,0.7-0.7,0.7h-0.5
	c-0.5,0-0.7-0.2-0.7-0.7V18.3z"/>
<path class="st0" d="M133.9,18.3c0-0.5,0.2-0.7,0.7-0.7h0.5c0.4,0,0.7,0.2,0.7,0.7v12.3c0,0.5-0.2,0.7-0.7,0.7h-0.5
	c-0.5,0-0.7-0.2-0.7-0.7V18.3z M134.5,14.5c-0.4,0-0.7-0.2-0.7-0.7v-1c0-0.5,0.2-0.7,0.7-0.7h0.7c0.4,0,0.7,0.2,0.7,0.7v1
	c0,0.4-0.2,0.7-0.7,0.7H134.5z"/>
<path class="st0" d="M141,19.3c1.4-1.4,3.1-2,5.1-2c1.7,0,3.2,0.5,4.5,1.6c0.3,0.3,0.4,0.6,0.1,0.9l-0.2,0.3
	c-0.2,0.4-0.5,0.4-0.9,0.1c-1.1-0.8-2.2-1.3-3.4-1.3c-1.5,0-2.8,0.5-3.8,1.6c-1,1-1.5,2.4-1.5,4c0,1.6,0.5,2.9,1.5,3.9
	c1,1,2.3,1.6,3.8,1.6c1.4,0,2.7-0.5,3.8-1.4c0.4-0.3,0.7-0.2,0.9,0.2l0.2,0.3c0.2,0.3,0.1,0.6-0.2,0.9c-1.4,1.2-3,1.7-4.8,1.7
	c-2.1,0-3.8-0.7-5.1-2c-1.3-1.3-2-3.1-2-5.2C139,22.3,139.6,20.6,141,19.3z"/>
<path class="st0" d="M158,30c1.2,0,2.2-0.5,3-1.6c0.8-1.1,1.2-2.2,1.2-3.5v-0.7h-0.8c-0.5,0-0.9,0-1.2,0c-0.7,0-2,0.1-2.8,0.4
	c-1.3,0.5-2.4,1.1-2.4,2.7C155,28.8,156.1,30,158,30z M161.4,22.9h0.8v-0.4c0-2.4-1.1-3.5-3.3-3.5c-1.2,0-2.2,0.3-3.3,0.9
	c-0.4,0.2-0.7,0.1-0.9-0.2l-0.2-0.3c-0.2-0.4-0.2-0.7,0.2-0.9c1.3-0.8,2.7-1.2,4.3-1.2c3.2,0,5,1.8,5,5.2v8.1c0,0.5-0.2,0.7-0.7,0.7
	h-0.4c-0.5,0-0.7-0.2-0.7-0.7v-1.1l0.1-1h-0.1c0,0-1.2,3.1-4.6,3.1c-1.2,0-2.3-0.4-3.2-1.1c-0.9-0.7-1.3-1.7-1.3-2.9
	C153.1,24.5,155.8,22.9,161.4,22.9z"/>
</svg>
