<?xml version="1.0" encoding="utf-8"?>
<!-- Generator: Adobe Illustrator 24.0.3, SVG Export Plug-In . SVG Version: 6.00 Build 0)  -->
<svg version="1.1" id="Layer_1" xmlns="http://www.w3.org/2000/svg" xmlns:xlink="http://www.w3.org/1999/xlink" x="0px" y="0px"
	 viewBox="0 0 176 176" style="enable-background:new 0 0 176 176;" xml:space="preserve">
<path d="M30.4,109.1c-1.6,0-3.2,0.1-4.8,0.1c-0.4,0-0.8,0.1-1.3,0.1l0,0c-0.1-0.9-0.2-1.8-0.2-2.8c0-1.1,0-2.1,0-3.3c-2,0-4,0-6,0
	c0-2.1,0-4.1,0-6.2c1.9,0,3.9,0,5.9,0c0-4.1,0-8,0-12.1c2.1,0,4.1,0,6.1,0c0-4.1,0-8.1,0-12.2c-6.1,0-12.1,0-18.2,0c0-2,0-3.9,0-6
	c-4,0-8,0-12,0c0-6.1,0-12.1,0-18.1c4,0,7.9,0,11.9,0c0,1.8,0,3.6,0,5.3c0,0.2-0.6,0.6-1,0.6c-1.6,0.1-3.3,0-5,0c0,2.1,0,4,0,6.1
	c6,0,12,0,18.1,0c0,2,0,3.9,0,6c4.2,0,8.2,0,12.2,0c0,2,0,4,0,6.1c2.2,0,4.2,0,6.1,0c0,2.1,0,4.1,0,6.2c-2,0-4,0-6.1,0
	c0,2,0,3.9,0,5.9c2,0,3.9,0,6.1,0c0-2,0-4,0-5.9c2,0,4,0,6,0c0-2.1,0-4.1,0-6.1c-2.1,0-4.1,0-6.1,0c0-2,0-4,0-6.1
	c-2.2,0-4.1,0-6.1,0c0-1.9,0-3.8,0-5.8c4.1,0,8.1,0,12.2,0c0,1.9,0,3.8,0,5.8c2.1,0,4,0,6.1,0c0,2.1,0,4,0,6c2.1,0,4,0,6.3,0
	c0-2,0-4,0-6l0,0c1.9,0,3.9,0,5.9,0c0-2,0-4,0-5.9l0,0c4,0,8.1,0,12.2,0c0-2.1,0-4.1,0-6.2c2,0,3.9,0,6,0c0,2,0,3.9,0,6
	c6.2,0,12.2,0,18.4,0c0-4,0-8,0-12c4.1,0,7.9,0,12,0c0,1.9,0,3.9,0,5.9c2.2,0,4.1,0,6.3,0c0,2.2,0,4.2,0,6.2l0,0c-4,0-8.1,0-12.2,0
	c0,2,0,3.9,0,5.8l0,0c-2,0-4,0-6,0c0,4.3,0,8.3,0,12.4l0,0c-2.1,0-4.3,0-6.4,0l0,0c0-2,0-4,0-6.1c-4,0-8,0-12.1,0c0-2.1,0-4,0-6
	c-4.1,0-8,0-12.2,0c0,2,0,3.9,0,5.9c-2.1,0-4,0-6,0c0,4.1,0,8.1,0,12.2c-2.1,0-4,0-6,0c0,2.1,0,4,0,6.2c-4.1,0-8.1,0-12.2,0
	c0,2.1,0,4,0,5.9c-2.1,0-4,0-6.1,0c0-1.9,0-3.8,0-5.8c-4,0-7.9,0-11.9,0c0,0.2-0.1,0.5-0.1,0.7c0,5.5,0,11.1,0,16.6
	C30.3,108.7,30.4,108.9,30.4,109.1L30.4,109.1z"/>
<path d="M127.4,127.4c0,6.1,0,12.1,0,18.1c6.1,0,12.1,0,18.1,0c0-6.1,0-12.1,0-18.1C139.4,127.4,133.5,127.4,127.4,127.4z
	 M133.7,157.7c-2.1,0-4.3,0-6.4,0l0,0c0-1.9,0-3.9,0-5.8c-2,0-3.9,0-5.9,0c0,2,0,3.9,0,5.8l0,0c-4,0-8.1,0-12.2,0c0,2.1,0,4.1,0,6.2
	c-4.1,0-8.1,0-12.2,0c0,2,0,3.9,0,6c4,0,7.9,0,12,0c0,2.1,0,4.1,0,6.1c-6,0-11.9,0-18,0c0-4,0-7.9,0-12c-2.1,0-4.1,0-6.1,0
	c0-2.1,0-4.1,0-6.2c2,0,4,0,6.1,0c0-2,0-3.9,0-6c2,0,3.9,0,6,0c0-2.1,0-4.1,0-6.1c2.1,0,4,0,6.2,0c0,2,0,4,0,6c2.1,0,4,0,6,0
	c0-2,0-4,0-6.1c2,0,3.9,0,6,0c0-4,0-8,0-12.1c2.2,0,4.1,0,6.2,0c0-2.1,0-4.1,0-6.2c-2,0-4,0-6.1,0c0-2.1,0-4,0-5.9c-2.1,0-4,0-6,0
	l0,0c0-4.1,0-8.1,0-12.3c1.9,0,3.8,0,5.9,0c0-4.1,0-8.1,0-12.3c2.2,0,4.2,0,6.2,0c0,0,0,0,0,0c0,2,0,4.1,0,6.2c2,0,3.9,0,5.9,0
	c0,2.1,0,4,0,6c-1.9,0-3.8,0-5.8,0c0,4.1,0,8.1,0,12.1c4,0,8,0,12.1,0c0-2,0-4,0-6c4.1,0,7.9,0,12,0c0,2.1,0,4,0,6.1
	c2.1,0,4.1,0,6.1,0c0,2,0,3.9,0,5.8c2,0,4,0,5.9,0l0,0c0,1.6,0.1,3.1,0.1,4.7c0,0.5,0,1,0,1.7c2.1,0,4,0,6.3,0c0,2.1,0,4.1,0,6l0,0
	c-2.1,0-4.2,0-6.4,0c0,4.2,0,8.2,0,12.2c-8.1,0-16,0-24,0C133.7,153.8,133.7,155.7,133.7,157.7L133.7,157.7z"/>
<path d="M85.1,78.7c2,0,4,0.1,5.9,0.1c2,0,4,0,5.9,0l0,0c0,2,0,3.9,0,5.9c2.2,0,4.2,0,6.4,0c0-2,0-4,0-5.9l0,0c6,0,12,0,18.1,0
	c0-1.4,0-2.6,0-3.8c0-4.8,0-9.5,0-14.3l0,0c1.9,0,3.8,0,5.9,0c0,6,0,12,0,18c2.1,0,4.1,0,6.2,0c0-6,0-11.9,0-18.1c2,0,3.9,0,6,0
	c0-2.1,0-4.1,0-6.2c2.1,0,4,0,6,0c0-2,0-3.9,0-5.9c4.1,0,8.1,0,12.1,0c0,1.9,0,3.8,0,5.9c-2,0-3.9,0-5.9,0c0,2.1,0,4,0,6.1
	c-2.1,0-4.1,0-6.1,0c0,6.1,0,12.2,0,18.2c2,0,4,0,6,0c0,4.1,0,8,0,12.2c-2,0-4,0-6.1,0c0,2,0,3.9,0,5.9c-2,0-3.9,0-6,0c0-4,0-8,0-12
	c-2,0-3.9,0-6,0c0,6.1,0,12.1,0,18.2c-2.1,0-4.1,0-6.2,0c0-2,0-4,0-6.2c-2.1,0-4,0-6,0c0,0,0,0,0,0c0-4,0-8,0-12
	c-4.1,0-8.1,0-12.2,0c0,2,0,4,0,6.1c-2.1,0-4,0-6,0c0,2,0,4,0,5.9c-2.1,0-4.1,0-6.1,0c0-1.9,0-3.8,0-5.8c-2,0-4,0-5.9,0l0,0
	c0-2.1,0-4.1,0-6.3c-2.2,0-4.2,0-6.4,0C84.9,82.7,85,80.7,85.1,78.7C85.1,78.7,85.1,78.7,85.1,78.7z"/>
<path d="M169.8,36.2c0-10.2,0-20.2,0-30.2c-10.1,0-20.2,0-30.2,0c0,10.1,0,20.1,0,30.2C149.7,36.2,159.7,36.2,169.8,36.2z M133.7,0
	c14.1,0,28.2,0,42.3,0c0,14.1,0,28.1,0,42.2c-14.1,0-28.2,0-42.3,0C133.7,28.2,133.7,14.2,133.7,0z"/>
<path d="M36.2,139.6c-10.2,0-20.2,0-30.2,0c0,10.1,0,20.2,0,30.2c10.1,0,20.1,0,30.2,0C36.2,159.8,36.2,149.7,36.2,139.6z
	 M42.2,133.7c0,14.2,0,28.2,0,42.3c-14.1,0-28.1,0-42.2,0c0-14.1,0-28.2,0-42.3C14.1,133.7,28.1,133.7,42.2,133.7z"/>
<path d="M6,36.2c10.1,0,20.2,0,30.2,0c0-10.1,0-20.2,0-30.2C26.1,6,16,6,6,6C6,16.1,6,26.1,6,36.2z M0,42.2C0,28.1,0,14.1,0,0
	c14.1,0,28.1,0,42.2,0c0,14,0,28.1,0,42.2C28.2,42.2,14.1,42.2,0,42.2z"/>
<path d="M78.8,127.3c0-1.9,0-3.8,0-5.8c2,0,4,0,6,0c0-2.1,0-4.1,0-6.2c-4,0-8,0-12,0c0-2.1,0-4,0-6c6.1,0,12.1,0,18.2,0
	c0-2,0-3.9,0-5.9c4.1,0,8.1,0,12.1,0c0,1.9,0,3.8,0,5.9c-2,0-4,0-6.1,0c0,4.1,0,8.1,0,12.2c-2,0-3.9,0-5.9,0c0,2,0,3.9,0,6
	c2,0,3.9,0,5.9,0c0,2.1,0,4.1,0,6.2c4.1,0,8.1,0,12.1,0c0,2,0,3.9,0,6c-6,0-12,0-18.1,0c0,2,0,3.9,0,5.9c-2.1,0-4.1,0-6.2,0
	c0-1.9,0-3.9,0-5.9c-2.1,0-4.1,0-6,0c0,0,0,0,0,0c0-1.9,0-3.9,0-6c2,0,3.9,0,5.9,0c0-2.1,0-4.1,0-6.4
	C82.7,127.2,80.7,127.2,78.8,127.3C78.8,127.2,78.8,127.3,78.8,127.3z"/>
<path d="M157.7,78.8c4.2,0,8.1,0,12.2,0c0-2,0-4,0-6c2.1,0,4,0,6.1,0c0,4,0,7.9,0,12c-4,0-7.9,0-12,0c0,6.2,0,12.2,0,18.4
	c4,0,8,0,12,0c0,4.1,0,8,0,11.9c-2,0-4,0-6.1,0c0-2,0-3.9,0-5.8c-6.1,0-12.1,0-18.2,0c0,2,0,3.9,0,5.8c-2.1,0-4,0-6.2,0
	c0-1.9,0-3.9,0-5.9c-4.1,0-7.9,0-11.9,0c0-2,0-3.9,0-6c8,0,15.9,0,24,0C157.7,95.1,157.7,87,157.7,78.8z"/>
<path d="M169.9,157.7c0,2,0,4.1,0,6.2c-2,0-3.9,0-5.9,0c0,4.1,0,8.1,0,12.1c-2.1,0-4.1,0-6.2,0c0-2,0-4,0-6.1c-2,0-3.9,0-6,0
	c0-2,0-3.9,0-6c-2,0-3.8,0-5.7,0c-0.2,0-0.5,0.7-0.5,1c0,3.3,0,6.5,0,9.8c0,0.4,0,0.8,0,1.2c-4,0-7.9,0-11.9,0c0-2,0-3.9,0-6
	c-2.1,0-4.1,0-6.2,0c0-2,0-3.9,0-6c2,0,4,0,6.3,0c0-2.2,0-4.3,0-6.3l-0.1,0c4.4,0,8.8,0,13.3,0C154.6,157.7,162.3,157.7,169.9,157.7
	L169.9,157.7z"/>
<path d="M60.8,42.4c0-2,0-4,0-6.1c-2.2,0-4.2,0-6.2,0c0-2,0-3.9,0-6c2,0,4,0,6,0c0-4.1,0-8.1,0-12.2c-2,0-4,0-6,0c0-2.1,0-4,0-6.1
	c4,0,7.9,0,12,0c0-2.1,0-4,0-6.1c-4,0-7.9,0-12,0c0-2,0-3.9,0-5.9c6,0,11.9,0,18,0c0,1.9,0,3.8,0,5.8c2.1,0,4.1,0,6.1,0
	c0,2,0,3.9,0,6c-2,0-3.9,0-6,0c0,4.1,0,8.1,0,12.2c-1.7,0-3.3,0-4.9,0c-0.9,0-1.2,0.3-1.2,1.2c0,5.1,0,10.3,0,15.4
	c0,0.5,0,0.9,0,1.7C64.6,42.4,62.7,42.4,60.8,42.4L60.8,42.4z"/>
<path d="M66.6,157.7c-1.9,0-3.8,0-5.9,0c0-1.9,0-3.8,0-5.9c-2.1,0-4.1,0-6.2,0c0-2.1,0-4.1,0-6.2c-2.1,0-4,0-6,0
	c0-6.1,0-12.1,0-18.1c4,0,7.9,0,12,0c0,2,0,4,0,6.1c-2,0-4,0-6,0c0,2.1,0,4,0,6c2,0,4,0,6.1,0c0,2,0,3.9,0,5.9c4,0,8,0,12,0
	c0-2,0-3.9,0-5.9c2.2,0,4.2,0,6.2,0c0,0,0,0,0,0c0,4,0,8,0,12.2c-4.1,0-8.1,0-12.3,0C66.6,153.8,66.6,155.7,66.6,157.7L66.6,157.7z"
	/>
<path d="M66.6,157.7c4,0,8.1,0,12.2,0c0,2.1,0,4.1,0,6.2c-2,0-4,0-6,0c0,2.1,0,4,0,6c2,0,4,0,6,0c0,2.1,0,4,0,6.1c-4,0-7.9,0-12,0
	c0-1.9,0-3.9,0-6c-2,0-3.9,0-6,0c0,2,0,3.9,0,6c-4.1,0-8.1,0-12.2,0c0-4,0-7.9,0-12c6,0,12,0,18,0C66.6,161.8,66.6,159.7,66.6,157.7
	C66.6,157.7,66.6,157.7,66.6,157.7z"/>
<path d="M127.3,48.4c-2,0-3.9,0-5.9,0c0-6,0-12,0-18c-2.1,0-4.1,0-6.2,0c0,3.9,0,7.8,0,11.8c-2.1,0-4,0-5.9,0c0-6,0-12,0-18.1
	c4.1,0,8,0,12.1,0c0-4.1,0-8,0-12.1c2,0,3.9,0,5.9,0C127.3,24.2,127.3,36.3,127.3,48.4z"/>
<path d="M96.9,18.2c4.1,0,8.1,0,12.2,0c0,2,0,3.8,0,5.9c-1.6,0-3.1,0.1-4.6,0c-1.1-0.1-1.4,0.3-1.4,1.4c0.1,7.2,0,14.3,0,21.5
	c0,0.5,0,0.9,0,1.4c-2.1,0-4,0-6.2,0c0-0.5,0-1,0-1.5c0-9.2,0-18.4,0-27.6C97,18.9,96.9,18.5,96.9,18.2L96.9,18.2z"/>
<path d="M78.8,36.2c0-1.9,0-3.8,0-5.9c-2,0-4,0-6,0c0-2.1,0-4.1,0-6.2c2.1,0,4,0,6.1,0c0-2,0-3.9,0-5.9c2,0,3.9,0,6,0
	c0,4,0,8,0,12.1c2.1,0,4.1,0,6.1,0c0,4,0,7.9,0,11.9c-2,0-4,0-6.1,0c0-2,0-3.9,0-6.1C82.7,36.1,80.7,36.1,78.8,36.2L78.8,36.2z"/>
<path d="M24.4,109.3c-0.1,0.7-0.2,1.4-0.2,2.1c0,1.2,0,2.4,0,3.7c2.1,0,4,0,6.2,0c0,2.1,0,4.1,0,6.2c1.7,0,3.2,0,4.8,0
	c2.5,0,4.9,0.1,7.4,0.1l0,0c0,1.9,0,3.8,0,5.8c-6.2,0-12.2,0-18.3,0c0-2,0-3.9,0-5.8c-2.1,0-4,0-6,0l0,0c0-4.1,0-8.1,0-12.2
	C20.3,109.3,22.3,109.3,24.4,109.3C24.4,109.3,24.4,109.3,24.4,109.3z"/>
<path d="M91.1,91.1c0,3.2-0.1,6.4-0.1,9.6c0,0.7,0,1.5,0,2.3c-6.1,0-12.2,0-18.3,0c0-4,0-7.9,0-12c2,0,4,0,6.1,0c0,1.9,0,3.8,0,5.8
	c2,0,4,0,6,0c0-2,0-3.9,0-5.8C87,91.2,89.1,91.2,91.1,91.1C91.2,91.2,91.1,91.1,91.1,91.1z"/>
<path d="M42.4,109.3c0-1.9,0-3.9,0-6c6,0,12,0,18.2,0c0-2.1,0-4.1,0-6.2c2,0,3.9,0,5.9,0c0,4,0,8,0,12.1c-1.8,0-3.6,0-5.3,0
	C55,109.2,48.7,109.2,42.4,109.3C42.4,109.2,42.4,109.3,42.4,109.3z"/>
<path d="M0,78.9c4,0,7.8,0,11.8,0c0,4,0,8,0,12c-3.9,0-7.8,0-11.8,0C0,86.9,0,83,0,78.9z"/>
<path d="M60.8,42.4c0,2,0,4,0,6.1c1.9,0,3.8,0,5.8,0c0,4.2,0,8.2,0,12.3l0,0c-2,0-3.9,0-5.9,0l0,0c0-2,0-4.1,0-6.2
	c-2.1,0-4.1,0-6.2,0c0-4.1,0-8.1,0-12.1C56.7,42.4,58.7,42.4,60.8,42.4C60.8,42.4,60.8,42.4,60.8,42.4z"/>
<path d="M78.7,36.1c0,4,0.1,7.9,0.1,11.9c0,2.1,0,4.2,0,6.4c-2.1,0-4.1,0-6.1,0c0-6,0-12,0-18.2C74.8,36.2,76.8,36.2,78.7,36.1
	C78.8,36.2,78.7,36.1,78.7,36.1z"/>
<path d="M18.2,121.5c0,1.9,0,3.8,0,5.8c-4.1,0-8.1,0-12.2,0c0-4,0-7.9,0-12c1.9,0,3.9,0,5.9,0c0,2,0,3.9,0,6.2
	C14.1,121.5,16.1,121.5,18.2,121.5C18.2,121.5,18.2,121.5,18.2,121.5z"/>
<path d="M72.8,127.2c-0.3,0.1-0.7,0.2-1,0.2c-3.6,0-7.3,0-11,0c0-2,0-3.9,0-5.9c1.9,0,3.8,0,5.9,0c0-2.1,0-4.1,0-6.2c2,0,4,0,6,0
	c0,0.4,0,0.9,0,1.3c0,3.1,0,6.3,0,9.4C72.7,126.4,72.8,126.8,72.8,127.2L72.8,127.2z"/>
<path d="M164,139.6c4,0,7.9,0,12,0c0,2,0,3.9,0,5.9c-1.9,0-3.9,0-6.1,0c0,2.2,0,4.3,0,6.3l0,0c-1.7,0-3.4-0.1-5,0c-0.8,0-1-0.3-1-1
	c0-1.2,0-2.5,0-3.7C164,144.5,164,142,164,139.6L164,139.6z"/>
<path d="M157.6,127.2c0-1.9,0-3.8,0-5.8c6.3,0,12.3,0,18.4,0c0,2,0,3.8,0,5.8c-0.2,0-0.5,0.1-0.7,0.1c-5.5,0-11.1,0-16.6,0
	C158.3,127.4,157.9,127.3,157.6,127.2C157.6,127.2,157.6,127.2,157.6,127.2z"/>
<path d="M48.4,54.4c-6,0-11.9,0-18,0c0-1.9,0-3.9,0-5.9c6,0,11.9,0,18,0C48.4,50.5,48.4,52.4,48.4,54.4z"/>
<path d="M157.8,60.6c0-2,0-3.9,0-6c4,0,8,0,12.1,0c0,2,0,3.9,0,6C165.9,60.6,161.9,60.6,157.8,60.6z"/>
<path d="M48.6,18.2c2,0,3.9,0,5.8,0c0,4,0,8,0,12.1c-2,0-3.9,0-5.8,0C48.6,26.2,48.6,22.2,48.6,18.2z"/>
<path d="M42.4,121.5c0-2.1,0-4.1,0-6.3c4,0,7.9,0,11.9,0c0,2,0,3.9,0,6.1c-0.4,0-0.9,0-1.3,0c-3.1,0-6.3,0-9.4,0
	C43.3,121.4,42.8,121.5,42.4,121.5C42.4,121.5,42.4,121.5,42.4,121.5z"/>
<path d="M0,103.1c0-2,0-3.9,0-6c3.9,0,7.8,0,11.8,0c0,1.9,0,3.9,0,6C7.9,103.1,4,103.1,0,103.1z"/>
<path d="M96.9,18.2c-4,0-8,0-12,0c0-2.1,0-4.1,0-6.1c4,0,8,0,12.1,0l0,0C96.9,14.1,96.9,16.1,96.9,18.2
	C96.9,18.2,96.9,18.2,96.9,18.2z"/>
<path d="M30.4,109.1c3.4,0,6.9,0,10.3,0.1c0.6,0,1.2,0,1.8,0.1c0,0,0,0,0,0c0,1.9,0,3.9,0,5.9c-4.2,0-8.1,0-12,0
	C30.4,113.1,30.4,111.1,30.4,109.1C30.4,109.1,30.4,109.1,30.4,109.1z"/>
<path d="M109.2,11.9c0-4,0-7.8,0-11.8c2,0,3.9,0,5.9,0c0,3.9,0,7.8,0,11.8C113.2,11.9,111.3,11.9,109.2,11.9z"/>
<path d="M97,12c0-2,0-4,0-6c2.1,0,4.1,0,6.1,0c0,2,0,3.9,0,6C101,12,99,12,97,12C96.9,12,97,12,97,12z"/>
<path d="M121.3,170c0,2,0,4,0,6c-2,0-4,0-6,0c0-2,0-3.9,0-6C117.3,170,119.2,170,121.3,170z"/>
<path d="M72.8,127.2c2,0,4,0,6,0.1c0,0,0,0,0,0c0,2.1,0,4.1,0,6.2c-2,0-4,0-6,0C72.8,131.4,72.8,129.3,72.8,127.2
	C72.8,127.2,72.8,127.2,72.8,127.2z"/>
<path d="M36.4,97.1c2,0,3.9,0,5.9,0c0,2,0,4,0,6c-2,0-3.9,0-5.9,0C36.4,101.1,36.4,99.2,36.4,97.1z"/>
<path d="M85.1,78.7c-2.1,0-4.2,0.1-6.3,0.1l0,0c0-2,0-4,0-6.1c2,0,3.9,0,6,0c0,1.6,0,3.2,0,4.8C84.9,77.9,85,78.3,85.1,78.7
	C85.1,78.7,85.1,78.7,85.1,78.7z"/>
<path d="M109.2,127.3c1.9,0,3.9,0,5.9,0c0,2.1,0,4.1,0,6.1c-1.9,0-3.8,0-5.9,0C109.2,131.4,109.2,129.3,109.2,127.3
	C109.2,127.3,109.2,127.3,109.2,127.3z"/>
<path d="M54.4,36.4c0,2,0,3.9,0,5.9c-2,0-3.9,0-5.9,0c0-2,0-3.9,0-5.9C50.5,36.4,52.4,36.4,54.4,36.4z"/>
<path d="M176,97c-2,0-4,0-6,0c0-1.9,0-3.8,0-5.8c2,0,3.9,0,6,0C176,93,176,94.9,176,97z"/>
<path d="M109.1,97.1c0,2,0,3.9,0,6c-1.9,0-3.8,0-5.8,0c0-2,0-3.9,0-6C105.2,97.1,107.1,97.1,109.1,97.1z"/>
<path d="M60.7,66.6c-2,0-4,0-6.2,0c0-1.9,0-3.8,0-5.8c2.1,0,4.1,0,6.2,0l0,0C60.7,62.7,60.7,64.6,60.7,66.6L60.7,66.6z"/>
<path d="M169.9,151.8c2,0,4,0,6.1,0c0,1.9,0,3.8,0,5.8c-2,0-4.1,0-6.1,0l0,0C169.9,155.7,169.9,153.8,169.9,151.8L169.9,151.8z"/>
<path d="M84.9,48.5c2.1,0,4,0,6.1,0c0,1.8,0,3.5,0,5.3c0,0.2-0.4,0.6-0.6,0.6c-1.8,0-3.6,0-5.4,0C84.9,52.4,84.9,50.5,84.9,48.5z"/>
<path d="M127.3,157.7c0,2,0,4,0,6.2c-1.9,0-3.8,0-5.8,0c0-2.1,0-4.1,0-6.2l0,0C123.4,157.7,125.4,157.7,127.3,157.7L127.3,157.7z"/>
<path d="M90.9,5.9c-2,0-3.9,0-6,0c0-1.9,0-3.8,0-5.8c1.9,0,3.9,0,6,0C90.9,1.9,90.9,3.8,90.9,5.9z"/>
<path d="M176,164c0,2,0,3.9,0,5.9c-2,0-4,0-6,0c0-1.9,0-3.9,0-5.9C172,164,173.9,164,176,164z"/>
<path d="M78.8,78.8c0,1.9,0,3.9,0,5.9c-2.1,0-4,0-6.1,0c0-2,0-3.9,0-5.9C74.8,78.8,76.8,78.8,78.8,78.8
	C78.9,78.8,78.8,78.8,78.8,78.8z"/>
<path d="M109.2,121.5c0,1.9,0,3.9-0.1,5.8c0,0,0,0,0,0c-1.9,0-3.9,0-5.9,0c0-1.9,0-3.8,0-5.8C105.3,121.5,107.3,121.5,109.2,121.5
	C109.3,121.5,109.2,121.5,109.2,121.5z"/>
<path d="M24,84.8c-2,0-3.9,0-5.8,0c0-2,0-3.9,0-5.8c1.9,0,3.8,0,5.8,0C24,80.9,24,82.8,24,84.8z"/>
<path d="M109.2,66.5c1.9,0,3.8,0,5.8,0c0,2.1,0,4.1,0,6.1c-1.9,0-3.8,0-5.8,0C109.3,70.5,109.3,68.5,109.2,66.5
	C109.3,66.5,109.2,66.5,109.2,66.5z"/>
<path d="M139.5,133.7c0,1.9,0,3.8,0,5.8c-1.9,0-3.8,0-5.8,0c0-1.9,0-3.8,0-5.8C135.6,133.7,137.5,133.7,139.5,133.7z"/>
<path d="M145.6,30.2c0-6.1,0-12.1,0-18.2c6.1,0,12.1,0,18.2,0c0,6.1,0,12.1,0,18.2C157.7,30.2,151.7,30.2,145.6,30.2z"/>
<path d="M12,30.2c0-6.1,0-12.1,0-18.2c6.1,0,12.1,0,18.2,0c0,6.1,0,12.1,0,18.2C24.2,30.2,18.1,30.2,12,30.2z"/>
<path d="M12,164.2c0-6.1,0-12.1,0-18.2c6.1,0,12.1,0,18.2,0c0,6.1,0,12.1,0,18.2C24.2,164.2,18.1,164.2,12,164.2z"/>
</svg>
