<?xml version="1.0" encoding="utf-8"?>
<!-- Generator: Adobe Illustrator 24.0.3, SVG Export Plug-In . SVG Version: 6.00 Build 0)  -->
<svg version="1.1" id="Layer_1" xmlns="http://www.w3.org/2000/svg" xmlns:xlink="http://www.w3.org/1999/xlink" x="0px" y="0px"
	 viewBox="0 0 26 26" style="enable-background:new 0 0 26 26;" xml:space="preserve">
<style type="text/css">
	.st0{fill:#015B01;}
</style>
<path class="st0" d="M21.5,20.6c-4.4-5.2-12.8-5.1-17.1,0C8.9,25.8,17.2,25.7,21.5,20.6z M3.5,19.4c2.6-2.7,5.8-4.1,9.5-4.1
	c3.7,0,6.9,1.4,9.5,4.1c3-4.2,2.8-10.8-1.9-15C16,0.3,9.1,0.6,4.8,5C0.5,9.4,0.8,15.7,3.5,19.4z M13,26C5.8,26,0,20.1,0,12.9
	C0,5.9,5.7,0,13,0c7.2,0,13,5.8,13,13.1C26,20.1,20.3,26,13,26z"/>
<path class="st0" d="M16,8.4C16,8.4,16,8.4,16,8.4c0-0.3,0-0.5,0-0.8c0-1.5-1.2-2.9-2.6-3C11.8,4.5,10.3,5.4,10,7
	C9.9,7.8,9.9,8.5,10,9.2c0,1.7,1.3,2.9,3,3c1.6,0.1,2.9-1.1,3.1-2.8C16.1,9.1,16,8.8,16,8.4z M17.6,8.4c0,0.8-0.1,1.7-0.4,2.5
	c-0.7,1.8-2.6,3-4.6,2.9c-2-0.2-3.8-1.6-4.1-3.6C8.3,8.8,8.2,7.4,8.8,6c0.6-1.6,2.3-3.1,4.8-2.9c1.9,0.2,3.6,1.7,3.9,3.6
	C17.6,7.3,17.6,7.9,17.6,8.4z"/>
</svg>
