<?xml version="1.0" encoding="utf-8"?>
<!-- Generator: Adobe Illustrator 24.0.3, SVG Export Plug-In . SVG Version: 6.00 Build 0)  -->
<svg version="1.1" id="Layer_1" xmlns="http://www.w3.org/2000/svg" xmlns:xlink="http://www.w3.org/1999/xlink" x="0px" y="0px"
	 viewBox="0 0 49.6 35.8" style="enable-background:new 0 0 49.6 35.8;" xml:space="preserve">
<style type="text/css">
	.st0{fill:#006FCF;}
	.st1{fill:#F7F7F7;}
</style>
<path class="st0" d="M45,35.8H4.6c-2.5,0-4.6-2.1-4.6-4.7V4.7C0,2.1,2.1,0,4.6,0H45c2.5,0,4.6,2.1,4.6,4.7v26.4
	C49.6,33.7,47.6,35.8,45,35.8z"/>
<path class="st1" d="M49.6,28.7v-8.3h-0.4H18.8l-0.8,1.1l-0.8-1.1H8.4v8.9h8.8l0.8-1.2l0.8,1.2h5.5v-1.9h-0.1c0.7,0,1.3-0.1,1.9-0.3
	v2.3H30V28l1,1.3h16.7c0.5,0,0.9-0.1,1.3-0.2C49.2,29,49.4,28.9,49.6,28.7z M43.5,17.4h3.7V8.5h-4v1.4l-0.9-1.4h-3.5v1.8l-0.8-1.8
	h-5.7c-0.3,0-0.5,0-0.8,0.1c-0.2,0-0.4,0.1-0.6,0.2c-0.2,0-0.3,0.1-0.5,0.2C30.3,9,30.2,9.1,30,9.2V8.9V8.5H11.3L10.8,10l-0.5-1.5
	H5.9v1.8L5.1,8.5H1.6L0,12.3v4.3v0.8h2.5L3,16.1h0.9l0.5,1.3h19.3V16l1,1.3H30v-0.3v-0.4c0.1,0.1,0.3,0.2,0.4,0.2
	c0.1,0.1,0.3,0.1,0.4,0.2c0.2,0.1,0.4,0.1,0.6,0.1c0.3,0.1,0.6,0.1,0.9,0.1h3.2L36,16h0.9l0.5,1.3h5.4V16L43.5,17.4z"/>
<path class="st0" d="M14.5,23.1v-1.2H9.8v6h4.7v-1.2h-3.3v-1.2h3.2v-1.2h-3.2v-1.2H14.5z M19.3,27.8h1.8l-2.3-3l2.3-3h-1.7l-1.4,1.9
	l-1.4-1.9h-1.8l2.3,3l-2.3,3h1.7l1.4-1.9L19.3,27.8z M21.4,21.8v6h1.4v-2h1.8c1.3,0,2.1-0.9,2.1-2c0-1.2-0.8-2-2-2L21.4,21.8
	L21.4,21.8z M25.2,23.9c0,0.4-0.2,0.7-0.7,0.7h-1.7v-1.5h1.7C25,23.1,25.2,23.4,25.2,23.9z M28.8,25.7h0.7l1.7,2.2h1.7L31,25.6
	c1-0.2,1.6-0.9,1.6-1.9c0-1.1-0.8-1.9-2-1.9h-3.2v6h1.4V25.7z M30.4,23.1c0.5,0,0.8,0.3,0.8,0.7c0,0.4-0.3,0.7-0.8,0.7h-1.6v-1.5
	H30.4z M38.3,23.1v-1.2h-4.7v6h4.7v-1.2H35v-1.2h3.2v-1.2H35v-1.2H38.3z M42.1,26.6h-3v1.2h3c1.3,0,2-0.8,2-1.9
	c0-1.1-0.7-1.7-1.8-1.7h-1.4c-0.3,0-0.6-0.2-0.6-0.6c0-0.4,0.2-0.6,0.6-0.6h2.5l0.5-1.2h-3c-1.3,0-2,0.8-2,1.9
	c0,1.1,0.7,1.7,1.8,1.7h1.3c0.3,0,0.6,0.2,0.6,0.6C42.7,26.4,42.4,26.6,42.1,26.6z M47.7,26.6h-3v1.2h3c1.3,0,2-0.8,2-1.9
	c0-1.1-0.7-1.7-1.8-1.7h-1.4c-0.3,0-0.6-0.2-0.6-0.6c0-0.4,0.2-0.6,0.6-0.6H49l0.5-1.2h-3c-1.3,0-2,0.8-2,1.9c0,1.1,0.7,1.7,1.8,1.7
	h1.3c0.3,0,0.6,0.2,0.6,0.6C48.2,26.4,48,26.6,47.7,26.6z"/>
<path class="st0" d="M5.3,15.9h1.6l-2.5-6H2.6l-2.5,6h1.5L2,14.6h2.8L5.3,15.9z M3,12.2L3.4,11l0.4,1.1l0.5,1.3H2.5L3,12.2z
	 M8.6,11.8l0-1.6l1.6,5.7h1.3l1.6-5.7l0,1.6v4.1h1.4v-6h-2.5l-1.1,4.2L9.6,9.9H7.2v6h1.4L8.6,11.8L8.6,11.8z M20.2,11.1V9.9h-4.7v6
	h4.7v-1.2h-3.3v-1.2h3.2v-1.2h-3.2v-1.2H20.2z M22.6,13.7h0.7l1.7,2.2h1.7l-1.9-2.2c1-0.2,1.6-0.9,1.6-1.9c0-1.1-0.8-1.9-2-1.9h-3.2
	v6h1.4V13.7z M24.3,11.1c0.5,0,0.8,0.3,0.8,0.7s-0.3,0.7-0.8,0.7h-1.6v-1.5H24.3z M27.2,15.9h1.4v-2.6V9.9h-1.4v3.3V15.9z
	 M32.2,15.9L32.2,15.9l0.6-1.3h-0.4c-1,0-1.5-0.6-1.5-1.7v-0.1c0-0.9,0.5-1.7,1.5-1.7h1.5V9.9h-1.6c-1.8,0-2.8,1.2-2.8,2.9V13
	C29.5,14.7,30.5,15.9,32.2,15.9z M38.3,15.9h1.6l-2.5-6h-1.8l-2.5,6h1.5l0.5-1.3h2.8L38.3,15.9z M36,12.2l0.4-1.1l0.4,1.1l0.5,1.3
	h-1.9L36,12.2z M41.6,12.3l0-0.5l0.3,0.5l2.2,3.6h1.6v-6h-1.4v3.5l0,0.4l-0.3-0.4l-2.2-3.5h-1.7v6h1.4L41.6,12.3L41.6,12.3z"/>
</svg>
