<?xml version="1.0" encoding="utf-8"?>
<!-- Generator: Adobe Illustrator 24.0.3, SVG Export Plug-In . SVG Version: 6.00 Build 0)  -->
<svg version="1.1" id="Layer_1" xmlns="http://www.w3.org/2000/svg" xmlns:xlink="http://www.w3.org/1999/xlink" x="0px" y="0px"
	 viewBox="0 0 24 24" style="enable-background:new 0 0 24 24;" xml:space="preserve">
<path d="M22.4,12.1c0.1-5.7-4.5-10.4-10.3-10.6C6.5,1.4,1.7,6.1,1.6,11.9c-0.1,5.7,4.6,10.5,10.3,10.6
	C17.6,22.5,22.3,17.9,22.4,12.1z M24,12.1c0,6.7-5.4,12-12,11.9C5.4,24,0,18.6,0,12.1C0,5.3,5.4-0.1,12.1,0C18.7,0.1,24,5.4,24,12.1
	z"/>
<path d="M8.8,16.2c-0.1,0.7-0.3,1.3-0.5,2c0.4,0.1,0.8,0.2,1.2,0.3c0.2-0.7,0.3-1.3,0.5-1.9c0.3,0.1,0.6,0.1,0.9,0.2
	c-0.1,0.7-0.3,1.3-0.4,2c0.4,0.1,0.8,0.2,1.2,0.3c0.2-0.7,0.4-1.4,0.5-2c0.2,0,0.3,0.1,0.4,0.1c0.9,0.1,1.9,0.2,2.8-0.3
	c0.8-0.5,1.2-1.3,1.3-2.2c0.1-1-0.4-1.7-1.2-2.2c1-0.3,1.4-1,1.5-1.9c0.1-1-0.4-1.6-1.2-2.1c-0.4-0.2-0.8-0.4-1.2-0.6
	c0.1-0.6,0.3-1.3,0.4-2c-0.4-0.1-0.8-0.2-1.2-0.3c-0.2,0.6-0.3,1.2-0.5,1.9c-0.3-0.1-0.6-0.1-0.9-0.2c0.1-0.7,0.3-1.3,0.4-2
	C12.4,5.2,12,5.1,11.6,5c-0.2,0.7-0.3,1.3-0.5,2c-0.8-0.2-1.6-0.4-2.4-0.6C8.5,6.9,8.4,7.3,8.3,7.7c0.2,0.1,0.4,0.1,0.6,0.2
	C9.7,8.1,9.8,8.2,9.6,9c-0.3,1.4-0.7,2.8-1,4.2c-0.3,1.5-0.4,1.2-1.5,0.9c0,0-0.1,0-0.1,0c-0.2,0.4-0.4,0.9-0.6,1.4
	C7.2,15.8,8,16,8.8,16.2z M2.5,12c0-5.3,4.3-9.5,9.5-9.5c5.4,0,9.6,4.3,9.6,9.6c0,5.4-4.3,9.6-9.6,9.5C6.6,21.5,2.4,17.2,2.5,12z"/>
<path d="M10.5,14.9c0.2-0.9,0.4-1.7,0.6-2.5c1,0.1,2,0.3,2.7,1c0.4,0.3,0.5,0.8,0.2,1.2c-0.2,0.3-0.5,0.6-0.9,0.7
	C12.3,15.5,11.4,15.2,10.5,14.9z"/>
<path d="M12,8.6c0.7,0.2,1.3,0.4,1.9,0.7c0.5,0.2,0.8,0.7,0.6,1.3c-0.1,0.6-0.6,0.8-1.1,0.8c-0.6,0-1.2-0.1-1.9-0.2
	C11.6,10.3,11.8,9.5,12,8.6z"/>
</svg>
