<?xml version="1.0" encoding="utf-8"?>
<!-- Generator: Adobe Illustrator 24.0.3, SVG Export Plug-In . SVG Version: 6.00 Build 0)  -->
<svg version="1.1" id="Layer_1" xmlns="http://www.w3.org/2000/svg" xmlns:xlink="http://www.w3.org/1999/xlink" x="0px" y="0px"
	 viewBox="0 0 29.1 26" style="enable-background:new 0 0 29.1 26;" xml:space="preserve">
<style type="text/css">
	.st0{fill:#015B01;}
</style>
<path class="st0" d="M24,23.4c0-0.5-0.4-0.9-0.8-0.9s-0.9,0.4-0.9,0.9c0,0.5,0.4,0.9,0.8,0.9C23.6,24.3,24,23.9,24,23.4z M12,23.4
	c0-0.5-0.4-0.9-0.9-0.9c-0.5,0-0.8,0.4-0.8,0.9c0,0.5,0.4,0.9,0.8,0.9C11.5,24.3,12,23.9,12,23.4z M27.1,5.2c-6.5,0-12.9,0-19.3,0
	c0,0.1,0,0.1,0,0.1c0.7,3.3,1.5,6.6,2.2,10c0.1,0.2,0.1,0.3,0.4,0.3c4.5,0,9,0,13.6,0c0.2,0,0.3-0.1,0.4-0.3
	c0.9-3.2,1.8-6.5,2.7-9.7C27.1,5.5,27.1,5.4,27.1,5.2z M10.7,20.8c-0.6,0-1.2,0.1-1.7,0c-1.1-0.1-1.9-1-2.1-2.1
	c-0.2-1,0.3-2.1,1.3-2.7c0.1,0,0.1-0.1,0.2-0.1c-0.2-1.1-0.5-2.2-0.7-3.3C6.9,9,6.1,5.6,5.4,2.2C5.3,1.8,5.2,1.7,4.9,1.7
	c-1.3,0-2.6,0-3.9,0c-0.4,0-0.7-0.1-0.8-0.4c-0.3-0.5,0-1.1,0.5-1.2C0.8,0,1,0,1.1,0c1.5,0,3.1,0,4.6,0c0.7,0,1,0.2,1.1,0.9
	C7,1.7,7.2,2.4,7.3,3.1c0.1,0.3,0.2,0.4,0.4,0.4c6.8,0,13.5,0,20.2,0c0.4,0,0.7,0,0.9,0.4c0.2,0.3,0.2,0.6,0.1,0.9
	C28,8.3,27,12,26,15.6c-0.1,0.4-0.2,0.7-0.3,1.1c-0.1,0.4-0.4,0.6-0.7,0.6c-0.2,0-0.3,0-0.5,0c-4.9,0-9.8,0-14.8,0
	c-0.2,0-0.3,0-0.5,0c-0.4,0.1-0.7,0.4-0.8,0.8c0,0.4,0.3,0.8,0.7,0.9c0.1,0,0.3,0,0.5,0c5,0,9.9,0,14.9,0c0.1,0,0.2,0,0.3,0
	c0.5,0,0.8,0.4,0.8,0.8c0,0.5-0.3,0.8-0.8,0.9c-0.4,0-0.9,0-1.4,0c1.6,0.4,2.4,1.6,2.2,3C25.5,25,24.4,26,23.1,26
	c-1.3-0.1-2.4-1-2.5-2.3c-0.1-1.4,0.7-2.5,2.2-2.9c-3.8,0-7.6,0-11.4,0c0.7,0.1,1.2,0.4,1.6,1c0.4,0.6,0.6,1.2,0.5,1.9
	C13.5,25,12.4,26,11.1,26c-1.3,0-2.4-1-2.5-2.4C8.4,22.3,9.3,21.1,10.7,20.8z"/>
</svg>
