<?xml version="1.0" encoding="utf-8"?>
<!-- Generator: Adobe Illustrator 24.0.3, SVG Export Plug-In . SVG Version: 6.00 Build 0)  -->
<svg version="1.1" id="Layer_1" xmlns="http://www.w3.org/2000/svg" xmlns:xlink="http://www.w3.org/1999/xlink" x="0px" y="0px"
	 viewBox="0 0 22 22" style="enable-background:new 0 0 22 22;" xml:space="preserve">
<path d="M0.7,11c0-5.7,4.5-10.2,10.2-10.3c5.8-0.1,10.4,4.5,10.5,10.2c0,5.8-4.5,10.3-10.2,10.4C5.4,21.4,0.7,16.7,0.7,11z M11.1,22
	c6.1,0,11-5,10.9-11C22,4.9,17,0,11.1,0C4.9,0,0,5,0,11C0,17.1,5,22.1,11.1,22z"/>
<path d="M11.4,8.9c0.2,0.1,0.3,0.1,0.4,0.2c0.7,0.3,1.3,0.6,2,0.9c0.5,0.2,1,0.4,1.4,0.7c0,0,0.1,0.1,0.1,0.1c0,0-0.1,0.1-0.1,0.1
	C15.1,11,15,11,14.9,11.1c-1.1,0.6-2.2,1.3-3.3,1.9c-0.2,0.1-0.2,0.1-0.2-0.1c0-1.1,0-2.2,0-3.3C11.4,9.4,11.4,9.2,11.4,8.9z
	 M10.6,8.9c0,0.2,0,0.3,0,0.4c0,1.2,0,2.3,0,3.5c0,0.1,0,0.1-0.1,0.2c0,0-0.1,0-0.2,0c-1.2-0.7-2.4-1.4-3.6-2.1
	c-0.1,0-0.1-0.1-0.2-0.1c0.1,0,0.1-0.1,0.2-0.1c0.9-0.4,1.8-0.8,2.7-1.2C9.9,9.2,10.3,9.1,10.6,8.9z M15.2,9.8
	C15.2,9.8,15.2,9.8,15.2,9.8c-0.1,0-0.2,0.1-0.2,0c-0.1,0-0.2-0.1-0.4-0.2c-1-0.5-2-0.9-3-1.4c-0.2-0.1-0.3-0.1-0.3-0.3
	c0-1.4,0-2.8,0-4.1c0-0.1,0-0.2,0-0.2c0,0,0,0,0.1,0C12.7,5.6,14,7.7,15.2,9.8z M10.6,3.5c0,0.1,0,0.2,0,0.3c0,1.4,0,2.7,0,4.1
	c0,0.2-0.1,0.2-0.2,0.3C9.9,8.5,9.3,8.8,8.7,9C8.2,9.3,7.6,9.5,7,9.8c0,0-0.1,0-0.2,0c0-0.1,0-0.1,0-0.2C7,9.4,7.2,9.1,7.4,8.8
	c0.7-1.2,1.4-2.3,2.1-3.5c0.3-0.6,0.7-1.2,1-1.7C10.5,3.6,10.5,3.6,10.6,3.5z M5.5,10.8c0.1,0.1,0.1,0.2,0.2,0.3
	c0.9,0.5,1.8,1.1,2.7,1.6c0.6,0.3,1.2,0.7,1.8,1c0.2,0.1,0.4,0.2,0.6,0.3c0.1,0.1,0.3,0.1,0.4,0c0.8-0.5,1.5-0.9,2.3-1.3
	c0.9-0.5,1.8-1.1,2.7-1.6c0.3-0.2,0.3-0.3,0.2-0.6c-0.4-0.7-0.8-1.3-1.2-2c-0.5-0.8-1-1.7-1.5-2.5c-0.8-1.3-1.6-2.7-2.4-4
	c-0.2-0.3-0.6-0.3-0.7,0c-0.4,0.7-0.8,1.5-1.3,2.2C8.8,5.1,8.2,6,7.7,7C7,8.1,6.3,9.3,5.6,10.4C5.5,10.5,5.5,10.6,5.5,10.8z"/>
<path d="M14.7,14C14.7,14,14.7,14,14.7,14c-1.1,1.6-2.2,3.1-3.3,4.7c0,0,0,0-0.1,0c0-0.1,0-0.1,0-0.2c0-0.8,0-1.6,0-2.4
	c0-0.1,0.1-0.2,0.2-0.3c0.3-0.2,0.5-0.3,0.8-0.5c0.7-0.4,1.4-0.8,2.1-1.3C14.5,14,14.6,14,14.7,14z M7.3,14C7.3,14,7.3,14,7.3,14
	c0.5,0.2,1,0.5,1.4,0.8c0.6,0.3,1.2,0.7,1.8,1c0.1,0.1,0.2,0.2,0.2,0.3c0,0.8,0,1.5,0,2.3c0,0.1,0,0.2,0,0.3
	c-0.1-0.1-0.1-0.1-0.2-0.1c-0.3-0.4-0.6-0.9-0.9-1.3c-0.7-1-1.5-2.1-2.2-3.1C7.3,14.1,7.3,14.1,7.3,14z M11,20.3
	c0.1-0.1,0.3-0.2,0.4-0.3c0.6-0.8,1.1-1.5,1.7-2.3c0.7-1,1.4-2,2.1-2.9c0.4-0.6,0.8-1.2,1.3-1.7c0,0,0.1-0.1,0.1-0.1
	c0.1-0.2,0.1-0.3,0-0.5c-0.1-0.1-0.3-0.1-0.5,0c-0.6,0.4-1.3,0.8-1.9,1.1c-0.8,0.5-1.7,1-2.5,1.5c-0.1,0.1-0.2,0.1-0.3,0.2
	c-0.1,0-0.3,0-0.4,0c-1.3-0.8-2.7-1.6-4-2.4c-0.2-0.1-0.5-0.3-0.7-0.4c-0.2-0.1-0.3-0.1-0.5,0c-0.1,0.1-0.1,0.4,0,0.5
	c0.2,0.3,0.4,0.5,0.5,0.8c0.7,0.9,1.3,1.8,2,2.8c0.7,0.9,1.3,1.9,2,2.8c0.2,0.3,0.4,0.5,0.6,0.8C10.7,20.1,10.9,20.2,11,20.3z"/>
</svg>
