<?xml version="1.0" encoding="utf-8"?>
<!-- Generator: Adobe Illustrator 24.0.3, SVG Export Plug-In . SVG Version: 6.00 Build 0)  -->
<svg version="1.1" id="Layer_1" xmlns="http://www.w3.org/2000/svg" xmlns:xlink="http://www.w3.org/1999/xlink" x="0px" y="0px"
	 viewBox="0 0 49.6 35.8" style="enable-background:new 0 0 49.6 35.8;" xml:space="preserve">
<style type="text/css">
	.st0{fill:#36495D;}
	.st1{fill:#F16522;}
	.st2{fill:#E41B24;}
	.st3{fill:#F89E1C;}
</style>
<path class="st0" d="M45,35.8H4.6c-2.5,0-4.6-2.1-4.6-4.7V4.7C0,2.1,2.1,0,4.6,0H45c2.5,0,4.6,2.1,4.6,4.7v26.4
	C49.6,33.7,47.6,35.8,45,35.8z"/>
<rect x="20.6" y="10.2" class="st1" width="8.3" height="15.3"/>
<path class="st2" d="M21.2,17.9c0-3.1,1.4-5.9,3.6-7.7c-1.6-1.3-3.7-2.1-5.9-2.1c-5.3,0-9.5,4.4-9.5,9.8c0,5.4,4.3,9.8,9.5,9.8
	c2.2,0,4.3-0.8,5.9-2.1C22.6,23.8,21.2,21,21.2,17.9z"/>
<path class="st3" d="M39.9,23.9v-0.4h-0.1l-0.1,0.3l-0.1-0.3h-0.1v0.4h0.1v-0.3l0.1,0.3h0.1l0.1-0.3L39.9,23.9L39.9,23.9z
	 M39.3,23.9v-0.3h0.1v-0.1h-0.3v0.1h0.1L39.3,23.9L39.3,23.9z M40.2,17.9c0,5.4-4.3,9.8-9.5,9.8c-2.2,0-4.3-0.8-5.9-2.1
	c2.2-1.8,3.6-4.6,3.6-7.7c0-3.1-1.4-5.9-3.6-7.7c1.6-1.3,3.7-2.1,5.9-2.1C36,8.1,40.2,12.5,40.2,17.9z"/>
</svg>
