<?xml version="1.0" encoding="utf-8"?>
<!-- Generator: Adobe Illustrator 24.0.3, SVG Export Plug-In . SVG Version: 6.00 Build 0)  -->
<svg version="1.1" id="Layer_1" xmlns="http://www.w3.org/2000/svg" xmlns:xlink="http://www.w3.org/1999/xlink" x="0px" y="0px"
	 viewBox="0 0 49.6 35.8" style="enable-background:new 0 0 49.6 35.8;" xml:space="preserve">
<style type="text/css">
	.st0{fill:#253B80;}
	.st1{fill:#FFFFFF;}
</style>
<path class="st0" d="M45,35.8H4.6c-2.5,0-4.6-2.1-4.6-4.7V4.7C0,2.1,2.1,0,4.6,0H45c2.5,0,4.6,2.1,4.6,4.7v26.4
	C49.6,33.7,47.5,35.8,45,35.8z"/>
<path class="st1" d="M11.6,13.2H8.9c-0.2,0-0.3,0.1-0.4,0.3l-1.1,7.1c0,0.1,0.1,0.3,0.2,0.3h1.3c0.2,0,0.3-0.1,0.4-0.3l0.3-1.9
	c0-0.2,0.2-0.3,0.4-0.3h0.9c1.8,0,2.8-0.9,3.1-2.6c0.1-0.8,0-1.4-0.3-1.8C13.2,13.4,12.5,13.2,11.6,13.2z M11.9,15.7
	c-0.2,1-0.9,1-1.6,1H9.9l0.3-1.9c0-0.1,0.1-0.2,0.2-0.2h0.2c0.5,0,1,0,1.2,0.3C11.9,15.1,12,15.4,11.9,15.7z"/>
<path class="st1" d="M19.7,15.7h-1.3c-0.1,0-0.2,0.1-0.2,0.2l-0.1,0.4L18,16.1c-0.3-0.4-0.9-0.6-1.5-0.6c-1.4,0-2.6,1.1-2.9,2.7
	c-0.1,0.8,0,1.5,0.5,2c0.4,0.5,1,0.7,1.6,0.7c1.2,0,1.8-0.8,1.8-0.8l-0.1,0.4c0,0.1,0.1,0.3,0.2,0.3h1.2c0.2,0,0.3-0.1,0.4-0.3
	l0.7-4.5C19.9,15.8,19.8,15.7,19.7,15.7z M17.9,18.3c-0.1,0.8-0.7,1.3-1.5,1.3c-0.4,0-0.7-0.1-0.9-0.4c-0.2-0.2-0.3-0.6-0.2-0.9
	c0.1-0.8,0.7-1.3,1.4-1.3c0.4,0,0.7,0.1,0.9,0.4C17.9,17.6,17.9,17.9,17.9,18.3z"/>
<path class="st1" d="M26.6,15.7h-1.3c-0.1,0-0.2,0.1-0.3,0.2l-1.8,2.7L22.4,16c0-0.2-0.2-0.3-0.4-0.3h-1.3c-0.2,0-0.3,0.2-0.2,0.3
	l1.4,4.3l-1.4,2c-0.1,0.2,0,0.4,0.2,0.4h1.3c0.1,0,0.2-0.1,0.3-0.2l4.4-6.4C26.9,15.9,26.8,15.7,26.6,15.7z"/>
<path class="st1" d="M30.9,13.2h-2.7c-0.2,0-0.3,0.1-0.4,0.3l-1.1,7.1c0,0.1,0.1,0.3,0.2,0.3h1.4c0.1,0,0.2-0.1,0.3-0.2l0.3-2
	c0-0.2,0.2-0.3,0.4-0.3h0.9c1.8,0,2.8-0.9,3.1-2.6c0.1-0.8,0-1.4-0.3-1.8C32.5,13.4,31.8,13.2,30.9,13.2z M31.2,15.7
	c-0.2,1-0.9,1-1.6,1h-0.4l0.3-1.9c0-0.1,0.1-0.2,0.2-0.2h0.2c0.5,0,1,0,1.2,0.3C31.2,15.1,31.2,15.4,31.2,15.7z"/>
<path class="st1" d="M39,15.7h-1.3c-0.1,0-0.2,0.1-0.2,0.2l-0.1,0.4l-0.1-0.1c-0.3-0.4-0.9-0.6-1.5-0.6c-1.4,0-2.6,1.1-2.9,2.7
	c-0.1,0.8,0,1.5,0.5,2c0.4,0.5,1,0.7,1.6,0.7c1.2,0,1.8-0.8,1.8-0.8l-0.1,0.4c0,0.1,0.1,0.3,0.2,0.3h1.2c0.2,0,0.3-0.1,0.4-0.3
	l0.7-4.5C39.2,15.8,39.1,15.7,39,15.7z M37.1,18.3c-0.1,0.8-0.7,1.3-1.5,1.3c-0.4,0-0.7-0.1-0.9-0.4c-0.2-0.2-0.3-0.6-0.2-0.9
	c0.1-0.8,0.7-1.3,1.4-1.3c0.4,0,0.7,0.1,0.9,0.4C37.1,17.6,37.2,17.9,37.1,18.3z"/>
<path class="st1" d="M40.5,13.3l-1.1,7.2c0,0.1,0.1,0.3,0.2,0.3h1.1c0.2,0,0.3-0.1,0.4-0.3l1.1-7.1c0-0.1-0.1-0.3-0.2-0.3h-1.2
	C40.6,13.2,40.5,13.2,40.5,13.3z"/>
</svg>
