<?xml version="1.0" encoding="utf-8"?>
<!-- Generator: Adobe Illustrator 24.0.3, SVG Export Plug-In . SVG Version: 6.00 Build 0)  -->
<svg version="1.1" id="Layer_1" xmlns="http://www.w3.org/2000/svg" xmlns:xlink="http://www.w3.org/1999/xlink" x="0px" y="0px"
	 viewBox="0 0 26 26" style="enable-background:new 0 0 26 26;" xml:space="preserve">
<style type="text/css">
	.st0{fill:#015B01;}
</style>
<path class="st0" d="M2.2,10.9c0,4.8,3.9,8.8,8.8,8.8c4.8,0,8.8-3.9,8.8-8.7c0-4.9-3.9-8.8-8.8-8.8C6.1,2.2,2.2,6.1,2.2,10.9z
	 M19.4,17.9c0.1,0.1,0.2,0.1,0.3,0.2c2,2,3.9,3.9,5.9,5.9c0.3,0.3,0.5,0.7,0.4,1.2c-0.2,0.7-1.1,1-1.7,0.5c-0.1-0.1-0.2-0.1-0.2-0.2
	c-2-1.9-3.9-3.9-5.8-5.8c-0.1-0.1-0.1-0.2-0.2-0.3C13.1,23.3,6.3,22.5,2.5,18C-1.1,13.6-0.8,7.2,3.3,3.1c4-4,10.5-4.2,14.8-0.5
	C22.4,6.3,23.4,13,19.4,17.9z"/>
</svg>
