<?xml version="1.0" encoding="utf-8"?>
<!-- Generator: Adobe Illustrator 24.0.3, SVG Export Plug-In . SVG Version: 6.00 Build 0)  -->
<svg version="1.1" id="Layer_1" xmlns="http://www.w3.org/2000/svg" xmlns:xlink="http://www.w3.org/1999/xlink" x="0px" y="0px"
	 viewBox="0 0 49.6 35.8" style="enable-background:new 0 0 49.6 35.8;" xml:space="preserve">
<style type="text/css">
	.st0{fill:#0066B2;}
	.st1{fill:#FFFFFF;}
	.st2{fill:#F9A533;}
</style>
<path class="st0" d="M45,35.8H4.6c-2.5,0-4.6-2.1-4.6-4.7V4.7C0,2.1,2.1,0,4.6,0H45c2.5,0,4.6,2.1,4.6,4.7v26.4
	C49.6,33.7,47.6,35.8,45,35.8z"/>
<polygon class="st1" points="22.7,23.5 20.1,23.5 21.7,13.3 24.3,13.3 "/>
<path class="st1" d="M18,13.3l-2.5,7l-0.3-1.5l-0.9-4.6c0,0-0.1-0.9-1.2-0.9H9l0,0.2c0,0,1.2,0.3,2.7,1.2l2.2,8.8h2.7l4.1-10.2H18z"
	/>
<path class="st1" d="M35.4,19.9l1.4-3.8l0.8,3.8H35.4z M38.3,23.5h2.4l-2.1-10.2h-2.1c-1,0-1.2,0.8-1.2,0.8l-3.9,9.4h2.7l0.5-1.5H38
	L38.3,23.5z"/>
<path class="st1" d="M31.7,15.8l0.4-2.2c0,0-1.1-0.4-2.3-0.4c-1.3,0-4.3,0.6-4.3,3.4c0,2.6,3.6,2.7,3.6,4s-3.2,1.1-4.3,0.3l-0.4,2.3
	c0,0,1.2,0.6,2.9,0.6s4.4-0.9,4.4-3.5c0-2.6-3.6-2.9-3.6-4C28,15,30.5,15.2,31.7,15.8z"/>
<path class="st2" d="M15.2,18.8l-0.9-4.6c0,0-0.1-0.9-1.2-0.9H9l0,0.2c0,0,2,0.4,3.8,2C14.6,17,15.2,18.8,15.2,18.8z"/>
</svg>
